<svg width="96" height="72" viewBox="0 0 96 72" fill="none" xmlns="http://www.w3.org/2000/svg">
<g clip-path="url(#clip0_1756_19151)">
<rect width="96" height="72" fill="white"/>
<path fill-rule="evenodd" clip-rule="evenodd" d="M0 0H96V66C96 69.3137 93.3137 72 90 72H6C2.68629 72 0 69.3137 0 66V0Z" fill="#C51918"/>
<path fill-rule="evenodd" clip-rule="evenodd" d="M0 0H96V72H0V0Z" fill="#C51918"/>
<path fill-rule="evenodd" clip-rule="evenodd" d="M18 18H78V54H18V18Z" fill="#579D20"/>
<path d="M75 21V51H21V21H75Z" stroke="#B6EB9A" stroke-opacity="0.238111" stroke-width="6"/>
<mask id="mask0_1756_19151" style="mask-type:luminance" maskUnits="userSpaceOnUse" x="18" y="18" width="60" height="36">
<path fill-rule="evenodd" clip-rule="evenodd" d="M18 18H78V54H18V18Z" fill="white"/>
<path d="M75 21V51H21V21H75Z" stroke="white" stroke-width="6"/>
</mask>
<g mask="url(#mask0_1756_19151)">
<path fill-rule="evenodd" clip-rule="evenodd" d="M48.0989 37.3872C48.0479 46.5843 55.2883 51.4879 55.2883 51.4879C47.0266 52.458 41.5298 44.9683 41.5298 37.4769C41.5298 29.9855 49.0226 23.7973 55.2883 21.0029C55.2883 21.0029 48.1499 28.1901 48.0989 37.3872Z" fill="#F9FAFA"/>
</g>
</g>
<defs>
<clipPath id="clip0_1756_19151">
<rect width="96" height="72" fill="white"/>
</clipPath>
</defs>
</svg>
