<svg width="96" height="72" viewBox="0 0 96 72" fill="none" xmlns="http://www.w3.org/2000/svg">
<g clip-path="url(#clip0_1756_19058)">
<rect width="96" height="72" fill="white"/>
<path fill-rule="evenodd" clip-rule="evenodd" d="M0 0H96V72H0V0Z" fill="#F7FCFF"/>
<path fill-rule="evenodd" clip-rule="evenodd" d="M0 0V72H96V0H0Z" fill="#5EAA22"/>
<mask id="mask0_1756_19058" style="mask-type:luminance" maskUnits="userSpaceOnUse" x="0" y="0" width="96" height="72">
<path fill-rule="evenodd" clip-rule="evenodd" d="M0 0V72H96V0H0Z" fill="white"/>
</mask>
<g mask="url(#mask0_1756_19058)">
<rect x="81" y="30" width="15" height="42" fill="#FF8126"/>
<rect x="66" y="30" width="15" height="42" fill="#272727"/>
<rect x="51" y="30" width="15" height="42" fill="#C51918"/>
<path fill-rule="evenodd" clip-rule="evenodd" d="M73.6407 14.513C75.0844 14.9608 73.6407 15.6463 73.6407 15.6463C73.6407 15.6463 73.3557 15.3668 73.3557 15.1335C73.3557 14.9001 72.2498 15.1335 71.6795 15.9804C71.139 16.783 72.1352 16.7807 73.1822 16.7783C73.2399 16.7782 73.2978 16.778 73.3557 16.778C73.9473 16.778 74.8726 16.7289 75.7333 16.6831C76.4815 16.6434 77.1807 16.6062 77.5694 16.6062C78.405 16.6062 78.8004 16.6062 79.9027 15.9804C80.6193 15.5736 82.9889 15.0756 84.7507 14.7054C85.6991 14.5061 86.4713 14.3438 86.7147 14.2527C87.4102 13.9923 86.0192 15.3668 86.0192 15.3668C86.0192 15.3668 91.3847 13.541 92.4597 12.9176C93.1238 12.5324 92.8229 12.8611 92.3316 13.3979C92.0277 13.7299 91.651 14.1416 91.3847 14.513C90.9311 15.146 91.855 14.5426 92.8811 13.8724C93.431 13.5133 94.0101 13.1351 94.4225 12.9176C95.6044 12.2941 94.1219 13.9853 93.4704 14.513C92.8188 15.0408 95.0003 14.513 95.7556 13.9853C96.3114 13.5969 95.8038 14.2757 95.3765 14.8472C95.2231 15.0524 95.0801 15.2437 95.0003 15.3668L94.9876 15.3865C94.6954 15.8372 94.6025 15.9804 95.3023 15.9804C96.0122 15.9804 93.4704 17.6478 93.4704 17.6478C93.4704 17.6478 94.2275 17.5463 93.4704 18.6566C93.0241 19.311 90.8503 19.9721 89.0855 20.5089C87.8564 20.8827 86.8257 21.1962 86.7147 21.4051C86.5155 21.7803 84.536 22.2148 83.6135 22.4173C83.2845 22.4895 83.0899 22.5322 83.1584 22.5322C83.4188 22.5322 83.8517 22.8102 83.3816 22.8102C82.9116 22.8102 82.086 23.0344 82.086 23.0344C82.086 23.0344 82.5205 23.0344 82.086 23.5569C81.8779 23.8071 81.513 23.7675 81.2571 23.7397C80.9787 23.7094 80.8293 23.6932 81.1509 24.0793C81.4335 24.4185 81.5414 24.5476 81.5149 24.5878C81.4834 24.6354 81.2634 24.5584 80.9217 24.5584C80.6223 24.5584 80.3025 24.4503 79.9666 24.3368C79.5954 24.2113 79.2046 24.0793 78.8004 24.0793C78.0613 24.0793 78.8032 24.5207 79.2666 24.7965C79.286 24.808 79.3048 24.8193 79.3231 24.8302C79.7368 25.0771 79.5644 25.0766 78.8156 25.0744C78.7401 25.0742 78.6588 25.0739 78.5716 25.0739C78.1072 25.0739 77.8574 25.0312 77.7233 25.0082C77.5825 24.9841 77.5694 24.9819 77.5694 25.0739C77.5694 25.1622 77.2193 25.0393 76.7981 24.8914C76.3621 24.7383 75.8498 24.5584 75.5708 24.5584C75.0222 24.5584 76.7337 25.5133 76.7337 25.5133C76.7337 25.5133 75.8422 25.27 75.3594 25.0739C75.085 24.9625 75.4338 25.4883 75.7486 25.963C75.9876 26.3234 76.2071 26.6543 76.1193 26.6543C76.0527 26.6543 75.9058 26.5948 75.7384 26.527C75.3949 26.3878 74.965 26.2137 74.965 26.447C74.965 26.7939 75.3594 27.0517 75.8422 27.0517C76.325 27.0517 76.4044 27.5935 76.1193 27.5935C76.0205 27.5935 75.8988 27.5576 75.7821 27.5232C75.5621 27.4583 75.3594 27.3986 75.3594 27.5935C75.3594 27.7192 75.4452 27.8133 75.5444 27.9223C75.6806 28.0718 75.8422 28.2492 75.8422 28.5746C75.8422 29.1369 75.1238 29.2169 75.3594 28.8442C75.5951 28.4715 74.5418 27.572 74.5418 28.0122V28.5746C74.5418 28.9721 74.4509 28.9975 74.309 29.0372C74.2217 29.0616 74.115 29.0914 73.9982 29.2169C73.8239 29.4041 73.7977 29.5106 73.7831 29.5703C73.7686 29.6294 73.7654 29.6425 73.6407 29.6425C73.5418 29.6425 73.4596 29.5183 73.349 29.3513C73.1794 29.0949 72.943 28.7378 72.4775 28.5746C72.0353 28.4194 72.012 28.532 71.9718 28.7265C71.9421 28.8702 71.9032 29.0586 71.6795 29.2169C71.3432 29.4548 71.4363 29.5535 71.5476 29.6714C71.6106 29.7383 71.6795 29.8113 71.6795 29.9193C71.6795 30.218 71.0913 29.6206 71.0913 29.2169C71.0913 28.8132 70.4226 28.2761 70.4226 28.5746C70.4226 28.873 70.4226 29.2169 70.0789 29.2169C69.9134 29.2169 69.9073 29.3164 69.899 29.4501C69.8901 29.5941 69.8787 29.7777 69.663 29.9193C69.4505 30.0588 69.4551 29.9844 69.4654 29.8211C69.4752 29.6648 69.4901 29.4269 69.3247 29.2169C69.1176 28.9541 69.2906 28.5474 69.3786 28.3406C69.4344 28.2094 69.456 28.1587 69.3247 28.2761C68.9908 28.5747 68.5651 28.5746 68.277 28.5746H68.2656C68.1206 28.5746 67.9939 28.7302 67.9038 28.8408C67.8148 28.9501 67.7616 29.0155 67.7616 28.8442C67.7616 28.4994 68.1882 27.5935 68.9909 27.5935C69.6093 27.5935 69.9205 27.3819 70.188 27.2C70.2678 27.1458 70.3437 27.0942 70.4226 27.0517C70.7663 26.8665 70.4226 26.625 70.0789 26.447C69.9227 26.3661 69.9794 26.1054 70.0878 25.8725C70.2785 25.7689 70.4226 25.6411 70.4226 25.5133C70.4226 25.3532 70.218 25.5928 70.0878 25.8725C69.8408 26.0066 69.5156 26.1 69.3247 26.1C69.1413 26.1 69.2561 25.8202 69.3997 25.47C69.521 25.1742 69.663 24.8281 69.663 24.5584C69.663 24.3015 69.7137 24.0782 69.7487 23.9237C69.794 23.7241 69.8132 23.6396 69.663 23.7465C69.4765 23.8792 68.4827 23.7332 67.805 23.6337C67.5145 23.591 67.2821 23.5569 67.1963 23.5569C67.0696 23.5569 67.1717 23.356 67.2731 23.1563C67.4008 22.9049 67.5276 22.6553 67.1963 22.8102C66.6771 23.053 65.6213 23.0427 64.9535 23.0362C64.8567 23.0353 64.768 23.0344 64.6903 23.0344C64.2997 23.0344 64.5678 22.7439 64.7115 22.5881C64.7936 22.4991 64.8351 22.4541 64.6903 22.5322C64.2918 22.7472 63.8957 22.8102 63.4475 22.8102C63.2454 22.8102 63.1877 22.7091 63.1245 22.5985C63.0474 22.4638 62.9623 22.3148 62.5983 22.3172C61.9355 22.3216 61.7869 22.3129 61.422 22.07C61.232 21.9436 61.3387 21.8693 61.3992 21.8271C61.455 21.7882 61.4717 21.7766 61.1813 21.7766H59.3831C58.4874 21.7766 59.3859 21.188 59.7088 21.188C60.0316 21.188 60.4059 20.6583 59.7088 20.8961C59.2625 21.0484 58.7851 21.0057 58.2206 20.9553C57.9031 20.927 57.5581 20.8961 57.1757 20.8961C56.1131 20.8961 55.9094 20.4819 56.5377 20.4819C57.166 20.4819 57.2031 20.1784 56.2265 20.1784C55.6138 20.1784 55.1101 20.0381 54.7347 19.9335C54.5117 19.8714 54.334 19.8218 54.2056 19.8218C53.861 19.8218 53.4884 19.4134 54.2056 19.4134C54.9228 19.4134 55.8427 19.0729 55.0579 19.0729C54.6145 19.0729 53.875 18.8739 53.2317 18.7006C52.7363 18.5673 52.2979 18.4492 52.0954 18.4492C51.94 18.4492 52.183 18.4052 52.5068 18.3466C53.1524 18.2297 54.119 18.0546 52.8862 18.0546C51.5698 18.0546 50.1904 17.1494 49.2377 16.5241C48.8509 16.2703 48.5344 16.0626 48.321 15.9804C47.5821 15.6957 48.321 15.1335 48.5339 15.3668C48.7467 15.6002 50.2371 15.9591 49.5916 15.6463C48.946 15.3335 48.5339 14.8012 48.321 14.513C48.1082 14.2249 48.2721 14.0258 48.5339 14.2527C48.7957 14.4795 50.004 15.1335 50.004 15.1335C50.004 15.1335 49.3575 14.513 48.8443 13.541C48.3311 12.569 49.3575 12.8058 50.2371 13.541C51.1167 14.2763 51.9413 14.4708 52.3554 14.513C52.7695 14.5553 51.9413 13.9834 51.1443 13.541C50.3473 13.0986 50.5282 11.5147 51.1443 12.1471C51.4648 12.4762 52.9834 13.1032 54.4686 13.7164C55.8382 14.282 57.1795 14.8358 57.5268 15.1335C58.1278 15.6485 57.6442 14.8807 57.1204 14.0488C57.0133 13.8788 56.9045 13.706 56.8029 13.541C56.4552 12.9759 57.853 13.618 59.4432 14.3485C60.5884 14.8745 61.8335 15.4464 62.5983 15.6463C63.1252 15.7841 63.7544 16.0046 64.3831 16.2249C65.9343 16.7686 67.4824 17.3112 67.4824 16.6062C67.4824 15.6155 68.9012 14.0652 70.4226 13.541C71.3882 13.2083 71.8428 13.5091 72.4152 13.8877C72.7447 14.1057 73.1132 14.3494 73.6407 14.513ZM72.0039 26.1403C72.3472 26.1403 72.2533 23.1299 72.2533 23.1299C72.2533 23.1299 73.2669 24.9759 73.2669 25.7748C73.2669 26.1382 73.2364 26.2466 73.2458 26.3515C73.2569 26.477 73.3251 26.5976 73.5709 27.1453C73.8209 27.7021 73.6553 27.6418 73.2036 27.4774C72.8402 27.345 72.2915 27.1453 71.625 27.1453C70.1301 27.1453 71.6605 26.1403 72.0039 26.1403Z" fill="#FF8126"/>
<path d="M73.6407 15.6463L73.3781 15.9141L73.565 16.0974L73.8015 15.9851L73.6407 15.6463ZM73.6407 14.513L73.5296 14.8712L73.5296 14.8712L73.6407 14.513ZM71.6795 15.9804L71.9905 16.1898L71.9905 16.1898L71.6795 15.9804ZM73.1822 16.7783L73.183 17.1533L73.183 17.1533L73.1822 16.7783ZM75.7333 16.6831L75.7532 17.0576L75.7532 17.0576L75.7333 16.6831ZM79.9027 15.9804L80.0879 16.3065L80.0879 16.3065L79.9027 15.9804ZM84.7507 14.7054L84.6736 14.3384L84.6736 14.3384L84.7507 14.7054ZM86.7147 14.2527L86.5832 13.9015L86.5832 13.9015L86.7147 14.2527ZM86.0192 15.3668L85.7557 15.1001L86.1401 15.7219L86.0192 15.3668ZM92.4597 12.9176L92.6478 13.2419L92.6478 13.2419L92.4597 12.9176ZM92.3316 13.3979L92.055 13.1447L92.055 13.1447L92.3316 13.3979ZM91.3847 14.513L91.6895 14.7315L91.6895 14.7315L91.3847 14.513ZM92.8811 13.8724L92.6761 13.5584L92.6761 13.5584L92.8811 13.8724ZM94.4225 12.9176L94.2475 12.5859L94.2475 12.5859L94.4225 12.9176ZM93.4704 14.513L93.7064 14.8044L93.7064 14.8044L93.4704 14.513ZM95.7556 13.9853L95.9704 14.2926L95.9704 14.2926L95.7556 13.9853ZM95.3765 14.8472L95.0762 14.6227L95.0762 14.6227L95.3765 14.8472ZM95.0003 15.3668L95.3149 15.5708L95.315 15.5708L95.0003 15.3668ZM94.9876 15.3865L95.3022 15.5904L95.3022 15.5904L94.9876 15.3865ZM93.4704 17.6478L93.2647 17.3342L93.5202 18.0194L93.4704 17.6478ZM93.4704 18.6566L93.7802 18.8678L93.7802 18.8678L93.4704 18.6566ZM89.0855 20.5089L89.1946 20.8676L89.1946 20.8676L89.0855 20.5089ZM86.7147 21.4051L87.0459 21.581L87.0459 21.5809L86.7147 21.4051ZM83.6135 22.4173L83.5331 22.051L83.5331 22.051L83.6135 22.4173ZM82.086 23.0344L81.9877 22.6725L82.086 23.4094V23.0344ZM82.086 23.5569L81.7977 23.3171L81.7977 23.3171L82.086 23.5569ZM81.2571 23.7397L81.2976 23.3669L81.2976 23.3669L81.2571 23.7397ZM81.1509 24.0793L81.4391 23.8393L81.4391 23.8393L81.1509 24.0793ZM81.5149 24.5878L81.8278 24.7945L81.8278 24.7945L81.5149 24.5878ZM79.9666 24.3368L79.8465 24.692L79.8465 24.692L79.9666 24.3368ZM79.2666 24.7965L79.4584 24.4743L79.4584 24.4743L79.2666 24.7965ZM79.3231 24.8302L79.1309 25.1522L79.1309 25.1522L79.3231 24.8302ZM78.8156 25.0744L78.8167 24.6994L78.8167 24.6994L78.8156 25.0744ZM77.7233 25.0082L77.6601 25.3779L77.6601 25.3779L77.7233 25.0082ZM76.7981 24.8914L76.6739 25.2452L76.6739 25.2452L76.7981 24.8914ZM76.7337 25.5133L76.635 25.8751L76.9164 25.1858L76.7337 25.5133ZM75.3594 25.0739L75.5006 24.7265L75.5006 24.7265L75.3594 25.0739ZM75.7486 25.963L75.4361 26.1702L75.4361 26.1702L75.7486 25.963ZM75.7384 26.527L75.8792 26.1794L75.8792 26.1794L75.7384 26.527ZM75.7821 27.5232L75.8881 27.1635L75.8881 27.1635L75.7821 27.5232ZM75.5444 27.9223L75.8216 27.6697L75.8216 27.6697L75.5444 27.9223ZM75.3594 28.8442L75.6764 29.0446L75.6764 29.0446L75.3594 28.8442ZM74.309 29.0372L74.2081 28.676L74.208 28.676L74.309 29.0372ZM73.9982 29.2169L74.2727 29.4724L74.2727 29.4724L73.9982 29.2169ZM73.7831 29.5703L73.4189 29.4808L73.4189 29.4809L73.7831 29.5703ZM73.349 29.3513L73.0363 29.5583L73.0364 29.5583L73.349 29.3513ZM72.4775 28.5746L72.3533 28.9284L72.3533 28.9284L72.4775 28.5746ZM71.9718 28.7265L71.6046 28.6506L71.6046 28.6506L71.9718 28.7265ZM71.6795 29.2169L71.8961 29.523L71.8961 29.523L71.6795 29.2169ZM71.5476 29.6714L71.8204 29.4141L71.8204 29.4141L71.5476 29.6714ZM69.899 29.4501L70.2733 29.4733L70.2733 29.4732L69.899 29.4501ZM69.663 29.9193L69.4572 29.6058L69.4572 29.6058L69.663 29.9193ZM69.4654 29.8211L69.8396 29.8446L69.8396 29.8446L69.4654 29.8211ZM69.3247 29.2169L69.0301 29.4489L69.0301 29.4489L69.3247 29.2169ZM69.3786 28.3406L69.0335 28.1938L69.0335 28.1938L69.3786 28.3406ZM69.3247 28.2761L69.5746 28.5556L69.5746 28.5556L69.3247 28.2761ZM68.277 28.5746L68.2771 28.1996H68.277V28.5746ZM67.9038 28.8408L68.1946 29.0776L68.1946 29.0776L67.9038 28.8408ZM70.188 27.2L69.9772 26.8899L69.9772 26.8899L70.188 27.2ZM70.4226 27.0517L70.2448 26.7215L70.2448 26.7215L70.4226 27.0517ZM70.0789 26.447L70.2513 26.114L70.2513 26.114L70.0789 26.447ZM69.3997 25.47L69.0527 25.3277L69.0527 25.3277L69.3997 25.47ZM69.7487 23.9237L69.383 23.8407L69.383 23.8408L69.7487 23.9237ZM69.663 23.7465L69.4455 23.441L69.4455 23.441L69.663 23.7465ZM67.805 23.6337L67.7505 24.0047L67.7505 24.0047L67.805 23.6337ZM67.2731 23.1563L67.6074 23.3261L67.6075 23.3261L67.2731 23.1563ZM67.1963 22.8102L67.0375 22.4705L67.0375 22.4705L67.1963 22.8102ZM64.9535 23.0362L64.9498 23.4112L64.9498 23.4112L64.9535 23.0362ZM64.7115 22.5881L64.9872 22.8423L64.9872 22.8423L64.7115 22.5881ZM64.6903 22.5322L64.5122 22.2022L64.5122 22.2022L64.6903 22.5322ZM63.1245 22.5985L62.7989 22.7846L62.7989 22.7846L63.1245 22.5985ZM62.5983 22.3172L62.6008 22.6922L62.6008 22.6922L62.5983 22.3172ZM61.422 22.07L61.6297 21.7578L61.6297 21.7578L61.422 22.07ZM61.3992 21.8271L61.1848 21.5194L61.1848 21.5194L61.3992 21.8271ZM59.7088 20.8961L59.5877 20.5412L59.5877 20.5412L59.7088 20.8961ZM58.2206 20.9553L58.2539 20.5818L58.2539 20.5818L58.2206 20.9553ZM54.7347 19.9335L54.6341 20.2947L54.6341 20.2947L54.7347 19.9335ZM53.2317 18.7006L53.1342 19.0627L53.1342 19.0627L53.2317 18.7006ZM52.5068 18.3466L52.4399 17.9776L52.4399 17.9776L52.5068 18.3466ZM49.2377 16.5241L49.0319 16.8377L49.0319 16.8377L49.2377 16.5241ZM48.321 15.9804L48.4559 15.6305L48.4559 15.6305L48.321 15.9804ZM48.5339 15.3668L48.811 15.1142L48.811 15.1142L48.5339 15.3668ZM49.5916 15.6463L49.428 15.9838L49.428 15.9838L49.5916 15.6463ZM48.321 14.513L48.0194 14.7358L48.0194 14.7358L48.321 14.513ZM48.5339 14.2527L48.7795 13.9693L48.7795 13.9693L48.5339 14.2527ZM50.004 15.1335L49.8255 15.4632L50.2636 14.8629L50.004 15.1335ZM48.8443 13.541L49.1759 13.3659L49.1759 13.3659L48.8443 13.541ZM50.2371 13.541L50.4776 13.2533L50.4776 13.2533L50.2371 13.541ZM52.3554 14.513L52.3173 14.8861L52.3173 14.8861L52.3554 14.513ZM51.1443 13.541L51.3263 13.2132L51.3263 13.2132L51.1443 13.541ZM51.1443 12.1471L50.8757 12.4088L50.8757 12.4088L51.1443 12.1471ZM54.4686 13.7164L54.6117 13.3698L54.6117 13.3698L54.4686 13.7164ZM57.5268 15.1335L57.7708 14.8487L57.7708 14.8487L57.5268 15.1335ZM57.1204 14.0488L57.4377 13.849L57.4377 13.849L57.1204 14.0488ZM56.8029 13.541L57.1223 13.3445L57.1223 13.3445L56.8029 13.541ZM59.4432 14.3485L59.5998 14.0077L59.5998 14.0077L59.4432 14.3485ZM62.5983 15.6463L62.5035 16.0091L62.5035 16.0091L62.5983 15.6463ZM64.3831 16.2249L64.259 16.5788L64.259 16.5788L64.3831 16.2249ZM70.4226 13.541L70.5448 13.8956L70.5448 13.8956L70.4226 13.541ZM72.4152 13.8877L72.2083 14.2005L72.2083 14.2005L72.4152 13.8877ZM72.2533 23.1299L72.582 22.9494L71.8785 23.1416L72.2533 23.1299ZM73.2458 26.3515L73.6193 26.3183L73.6193 26.3183L73.2458 26.3515ZM73.5709 27.1453L73.913 26.9917L73.913 26.9917L73.5709 27.1453ZM73.2036 27.4774L73.0753 27.8297L73.0753 27.8297L73.2036 27.4774ZM73.6407 15.6463C73.8015 15.9851 73.8016 15.985 73.8018 15.985C73.8018 15.985 73.8019 15.9849 73.802 15.9849C73.8022 15.9848 73.8024 15.9847 73.8026 15.9846C73.8031 15.9843 73.8037 15.9841 73.8043 15.9838C73.8056 15.9831 73.8072 15.9824 73.8091 15.9814C73.8131 15.9795 73.8183 15.9769 73.8247 15.9737C73.8376 15.9672 73.8553 15.9581 73.8768 15.9466C73.9196 15.9237 73.9784 15.8907 74.044 15.8493C74.1678 15.7711 74.3459 15.6444 74.4758 15.4808C74.6047 15.3183 74.7519 15.0245 74.5808 14.7029C74.4384 14.4352 74.1274 14.2714 73.7518 14.1549L73.6407 14.513L73.5296 14.8712C73.8758 14.9786 73.9257 15.0684 73.9187 15.0551C73.883 14.988 73.9399 14.9496 73.8883 15.0145C73.8378 15.0782 73.7452 15.1509 73.6434 15.2152C73.5962 15.245 73.5535 15.269 73.5229 15.2854C73.5078 15.2935 73.4959 15.2996 73.4883 15.3034C73.4845 15.3053 73.4819 15.3066 73.4804 15.3073C73.4797 15.3077 73.4792 15.3079 73.4791 15.3079C73.4791 15.3079 73.4791 15.3079 73.4792 15.3079C73.4793 15.3078 73.4794 15.3078 73.4795 15.3078C73.4795 15.3077 73.4796 15.3077 73.4796 15.3077C73.4797 15.3076 73.4798 15.3076 73.6407 15.6463ZM73.3557 15.1335H72.9807C72.9807 15.3777 73.1174 15.5903 73.1938 15.6964C73.2391 15.7595 73.2837 15.8122 73.3167 15.8491C73.3334 15.8678 73.3477 15.8829 73.3582 15.8939C73.3635 15.8994 73.3679 15.9039 73.3713 15.9073C73.373 15.909 73.3744 15.9104 73.3755 15.9115C73.3761 15.9121 73.3766 15.9126 73.377 15.913C73.3773 15.9132 73.3775 15.9134 73.3776 15.9136C73.3777 15.9137 73.3778 15.9138 73.3779 15.9139C73.3779 15.9139 73.378 15.914 73.378 15.914C73.3781 15.914 73.3781 15.9141 73.6407 15.6463C73.9032 15.3786 73.9033 15.3786 73.9033 15.3787C73.9034 15.3787 73.9034 15.3788 73.9034 15.3788C73.9035 15.3788 73.9036 15.3789 73.9036 15.379C73.9037 15.3791 73.9038 15.3792 73.9039 15.3792C73.9041 15.3794 73.9042 15.3795 73.9042 15.3795C73.9043 15.3796 73.9041 15.3794 73.9037 15.379C73.9029 15.3782 73.9011 15.3764 73.8986 15.3738C73.8936 15.3686 73.8856 15.3601 73.8755 15.3489C73.8551 15.3261 73.8285 15.2944 73.8026 15.2584C73.776 15.2215 73.7551 15.1867 73.7418 15.1574C73.7274 15.1256 73.7307 15.1192 73.7307 15.1335H73.3557ZM71.6795 15.9804L71.9905 16.1898C72.2238 15.8434 72.5739 15.6152 72.8672 15.5014C73.0156 15.4437 73.1269 15.4243 73.1816 15.4231C73.2138 15.4225 73.1941 15.4288 73.1514 15.4093C73.0924 15.3824 72.9807 15.2934 72.9807 15.1335H73.3557H73.7307C73.7307 14.9151 73.5844 14.7824 73.4626 14.7269C73.3572 14.6788 73.2467 14.6717 73.1663 14.6733C72.9959 14.6768 72.795 14.7248 72.5957 14.8022C72.1934 14.9584 71.7054 15.2705 71.3684 15.7709L71.6795 15.9804ZM73.1822 16.7783L73.1813 16.4033C72.917 16.4039 72.6691 16.4044 72.449 16.393C72.2242 16.3814 72.0579 16.3585 71.9493 16.3239C71.8293 16.2857 71.8774 16.2668 71.8982 16.3364C71.9149 16.392 71.8711 16.3672 71.9905 16.1898L71.6795 15.9804L71.3684 15.7709C71.2176 15.9949 71.0956 16.2708 71.1798 16.5517C71.2682 16.8465 71.5294 16.9773 71.7218 17.0386C71.9255 17.1034 72.1708 17.1297 72.4103 17.142C72.6546 17.1546 72.9238 17.1539 73.183 17.1533L73.1822 16.7783ZM73.3557 16.778V16.403C73.2973 16.403 73.239 16.4032 73.1813 16.4033L73.1822 16.7783L73.183 17.1533C73.2409 17.1532 73.2983 17.153 73.3557 17.153V16.778ZM75.7333 16.6831L75.7134 16.3086C74.8481 16.3546 73.9348 16.403 73.3557 16.403V16.778V17.153C73.9597 17.153 74.8972 17.1031 75.7532 17.0576L75.7333 16.6831ZM77.5694 16.6062V16.2312C77.1681 16.2312 76.4558 16.2692 75.7134 16.3086L75.7333 16.6831L75.7532 17.0576C76.5071 17.0175 77.1934 16.9812 77.5694 16.9812V16.6062ZM79.9027 15.9804L79.7176 15.6543C79.1812 15.9588 78.8429 16.0958 78.5522 16.1625C78.2592 16.2297 77.994 16.2312 77.5694 16.2312V16.6062V16.9812C77.9803 16.9812 78.3306 16.9828 78.7199 16.8935C79.1114 16.8037 79.5219 16.6278 80.0879 16.3065L79.9027 15.9804ZM84.7507 14.7054L84.6736 14.3384C83.7941 14.5232 82.7548 14.7416 81.8453 14.965C81.3906 15.0767 80.9637 15.1908 80.6028 15.3037C80.2487 15.4145 79.9337 15.5316 79.7176 15.6543L79.9027 15.9804L80.0879 16.3065C80.23 16.2258 80.48 16.128 80.8268 16.0195C81.1668 15.9131 81.5768 15.8033 82.0242 15.6933C82.9192 15.4735 83.9455 15.2578 84.8278 15.0724L84.7507 14.7054ZM86.7147 14.2527L86.5832 13.9015C86.4906 13.9361 86.2644 13.994 85.9149 14.0726C85.5759 14.1488 85.1487 14.2386 84.6736 14.3384L84.7507 14.7054L84.8278 15.0724C85.3011 14.9729 85.7342 14.8819 86.0793 14.8043C86.4139 14.7291 86.6954 14.6603 86.8462 14.6039L86.7147 14.2527ZM86.0192 15.3668C86.2828 15.6336 86.2829 15.6336 86.2829 15.6335C86.2829 15.6335 86.2829 15.6335 86.283 15.6334C86.283 15.6334 86.2831 15.6333 86.2833 15.6332C86.2835 15.6329 86.2838 15.6326 86.2842 15.6323C86.2849 15.6315 86.2861 15.6304 86.2875 15.629C86.2903 15.6262 86.2944 15.6221 86.2997 15.6168C86.3102 15.6063 86.3253 15.5911 86.3443 15.572C86.3821 15.5338 86.4351 15.4796 86.4965 15.4155C86.6184 15.2883 86.777 15.1178 86.9152 14.953C86.9841 14.8708 87.0513 14.786 87.1074 14.706C87.1587 14.6328 87.2189 14.5384 87.253 14.4419C87.269 14.3966 87.2948 14.3092 87.28 14.2057C87.2612 14.0741 87.1793 13.9464 87.0367 13.8831C86.926 13.8339 86.8205 13.8432 86.7655 13.8515C86.7019 13.8611 86.6396 13.8804 86.5832 13.9015L86.7147 14.2527L86.8462 14.6039C86.8768 14.5924 86.8851 14.5919 86.8776 14.5931C86.8731 14.5937 86.8583 14.5957 86.8361 14.5944C86.8143 14.5931 86.7765 14.5881 86.7323 14.5685C86.6182 14.5179 86.552 14.4126 86.5376 14.3119C86.5319 14.2722 86.5352 14.2412 86.5379 14.2244C86.5408 14.2069 86.5446 14.1956 86.5459 14.192C86.5474 14.1877 86.537 14.2131 86.4932 14.2755C86.4542 14.3312 86.4019 14.3979 86.3404 14.4712C86.2177 14.6175 86.0721 14.7744 85.9549 14.8967C85.8968 14.9574 85.8466 15.0086 85.811 15.0446C85.7933 15.0625 85.7792 15.0766 85.7697 15.0861C85.765 15.0909 85.7613 15.0945 85.759 15.0968C85.7578 15.098 85.7569 15.0989 85.7563 15.0994C85.7561 15.0997 85.7559 15.0999 85.7557 15.1C85.7557 15.1001 85.7557 15.1001 85.7556 15.1001C85.7556 15.1001 85.7556 15.1001 85.7556 15.1001C85.7556 15.1001 85.7557 15.1001 86.0192 15.3668ZM92.4597 12.9176L92.2715 12.5932C92.0311 12.7327 91.5206 12.954 90.8619 13.2146C90.2126 13.4715 89.4451 13.7568 88.7087 14.0234C87.9727 14.2899 87.27 14.5371 86.7511 14.7177C86.4918 14.8079 86.2784 14.8815 86.13 14.9325C86.0558 14.958 85.9978 14.9779 85.9585 14.9914C85.9388 14.9981 85.9237 15.0032 85.9136 15.0067C85.9086 15.0084 85.9048 15.0097 85.9022 15.0106C85.9009 15.011 85.9 15.0113 85.8994 15.0115C85.899 15.0116 85.8988 15.0117 85.8987 15.0118C85.8986 15.0118 85.8985 15.0118 85.8985 15.0118C85.8985 15.0118 85.8984 15.0118 86.0192 15.3668C86.1401 15.7219 86.1401 15.7218 86.1401 15.7218C86.1402 15.7218 86.1402 15.7218 86.1403 15.7218C86.1405 15.7217 86.1408 15.7216 86.1411 15.7215C86.1418 15.7213 86.1428 15.7209 86.1441 15.7205C86.1467 15.7196 86.1506 15.7183 86.1557 15.7165C86.166 15.713 86.1812 15.7078 86.2011 15.701C86.2408 15.6874 86.2992 15.6675 86.3738 15.6418C86.523 15.5905 86.7372 15.5166 86.9977 15.426C87.5184 15.2447 88.2242 14.9965 88.964 14.7286C89.7034 14.4609 90.4787 14.1728 91.1378 13.912C91.7875 13.6549 92.3508 13.4142 92.6478 13.2419L92.4597 12.9176ZM92.3316 13.3979L92.6082 13.6511C92.7299 13.5182 92.8447 13.3928 92.9357 13.2878C93.0173 13.1936 93.11 13.0824 93.1603 12.9876C93.174 12.9616 93.1956 12.9172 93.208 12.8617C93.2187 12.8141 93.2385 12.6883 93.1589 12.5605C93.0696 12.4172 92.9283 12.3827 92.855 12.3765C92.7848 12.3705 92.7258 12.3836 92.6945 12.3917C92.5792 12.4217 92.4297 12.5015 92.2715 12.5932L92.4597 12.9176L92.6478 13.2419C92.727 13.196 92.787 13.1636 92.8309 13.1419C92.8798 13.1178 92.8928 13.1151 92.8834 13.1175C92.8808 13.1182 92.8446 13.1283 92.7915 13.1238C92.7352 13.119 92.6053 13.0903 92.5223 12.957C92.4488 12.839 92.4695 12.7272 92.4762 12.6975C92.4846 12.6598 92.4973 12.6371 92.4976 12.6363C92.4996 12.6327 92.493 12.6448 92.4666 12.679C92.4426 12.7099 92.4102 12.749 92.3689 12.7966C92.286 12.8922 92.179 13.0092 92.055 13.1447L92.3316 13.3979ZM91.3847 14.513L91.6895 14.7315C91.9401 14.3818 92.3003 13.9875 92.6082 13.6511L92.3316 13.3979L92.055 13.1447C91.7551 13.4724 91.3618 13.9013 91.0799 14.2946L91.3847 14.513ZM92.8811 13.8724L92.6761 13.5584C92.1541 13.8993 91.6872 14.2036 91.4066 14.3479C91.3372 14.3835 91.294 14.4015 91.2725 14.4085C91.2613 14.4121 91.2693 14.4083 91.2903 14.4064C91.3035 14.4052 91.3801 14.3984 91.4674 14.4477C91.5818 14.5124 91.6323 14.6242 91.64 14.7142C91.6459 14.7825 91.6276 14.827 91.6275 14.8272C91.6256 14.8322 91.6368 14.8051 91.6895 14.7315L91.3847 14.513L91.0799 14.2946C91.0192 14.3793 90.9601 14.4717 90.9259 14.5623C90.9096 14.6052 90.8847 14.6839 90.8928 14.7785C90.9028 14.8949 90.9644 15.025 91.0983 15.1007C91.205 15.161 91.3093 15.1578 91.3579 15.1534C91.4142 15.1483 91.4652 15.1345 91.504 15.1219C91.5826 15.0964 91.6676 15.057 91.7494 15.0149C92.0739 14.8481 92.582 14.5156 93.0862 14.1864L92.8811 13.8724ZM94.4225 12.9176L94.2475 12.5859C93.816 12.8135 93.2195 13.2035 92.6761 13.5584L92.8811 13.8724L93.0862 14.1864C93.6424 13.8231 94.2043 13.4566 94.5974 13.2492L94.4225 12.9176ZM93.4704 14.513L93.7064 14.8044C94.0581 14.5196 94.6132 13.9416 94.9353 13.5068C95.0166 13.397 95.0914 13.2854 95.145 13.1825C95.1717 13.1313 95.1982 13.0726 95.2164 13.0107C95.2326 12.9554 95.254 12.8593 95.2305 12.7506C95.2015 12.6157 95.1099 12.4964 94.9686 12.4399C94.8554 12.3946 94.7474 12.4049 94.6834 12.416C94.551 12.439 94.4014 12.5047 94.2475 12.5859L94.4225 12.9176L94.5974 13.2492C94.6637 13.2143 94.7152 13.1903 94.7539 13.1747C94.7945 13.1584 94.8118 13.1549 94.8118 13.1549C94.8112 13.155 94.8002 13.157 94.7818 13.1563C94.7636 13.1557 94.7303 13.1523 94.6901 13.1362C94.587 13.095 94.5179 13.004 94.4974 12.9086C94.4893 12.871 94.4905 12.8416 94.4921 12.8261C94.4937 12.8101 94.4964 12.8007 94.4968 12.7994C94.4972 12.7979 94.4938 12.8092 94.4799 12.8359C94.4523 12.8889 94.4035 12.9648 94.3326 13.0604C94.0461 13.4472 93.5343 13.9787 93.2343 14.2217L93.4704 14.513ZM95.7556 13.9853L95.5408 13.6779C95.2214 13.9011 94.542 14.1518 93.9992 14.2801C93.8679 14.3111 93.7522 14.3331 93.6588 14.3454C93.6123 14.3515 93.5741 14.3549 93.5442 14.3561C93.5294 14.3567 93.5177 14.3568 93.509 14.3565C93.5047 14.3564 93.5014 14.3562 93.4991 14.356C93.4979 14.3559 93.497 14.3559 93.4964 14.3558C93.4958 14.3557 93.4955 14.3557 93.4955 14.3557C93.4955 14.3557 93.4959 14.3558 93.4966 14.3559C93.4973 14.356 93.4984 14.3562 93.4998 14.3565C93.5026 14.357 93.5074 14.3581 93.5137 14.3601C93.5251 14.3635 93.5494 14.372 93.5784 14.3908C93.6501 14.4372 93.7302 14.5376 93.7253 14.6767C93.7234 14.7306 93.7086 14.7706 93.6983 14.7927C93.6879 14.815 93.678 14.8281 93.6753 14.8315C93.6709 14.8372 93.677 14.8283 93.7064 14.8044L93.4704 14.513L93.2343 14.2217C93.1824 14.2638 93.1291 14.3126 93.0854 14.3683C93.0479 14.4161 92.9805 14.5146 92.9758 14.6504C92.9696 14.8246 93.0664 14.9528 93.1708 15.0203C93.2557 15.0753 93.3445 15.0923 93.3972 15.0992C93.5095 15.1141 93.6389 15.1045 93.757 15.0889C93.8823 15.0724 94.0237 15.0449 94.1716 15.0099C94.7454 14.8743 95.5345 14.5972 95.9704 14.2926L95.7556 13.9853ZM95.3765 14.8472L95.6768 15.0718C95.8833 14.7957 96.1347 14.4605 96.2597 14.2433C96.2907 14.1894 96.3265 14.1219 96.3489 14.0534C96.3595 14.0211 96.3762 13.9623 96.3749 13.8914C96.3737 13.8188 96.3501 13.6766 96.2162 13.5759C96.0933 13.4836 95.9628 13.4926 95.9082 13.5007C95.8467 13.5099 95.795 13.5306 95.7612 13.546C95.6911 13.5778 95.616 13.6253 95.5408 13.6779L95.7556 13.9853L95.9704 14.2926C96.0341 14.2481 96.0647 14.2319 96.0716 14.2287C96.0762 14.2266 96.0558 14.237 96.019 14.2425C95.989 14.247 95.8765 14.2589 95.7656 14.1755C95.6437 14.0839 95.626 13.9567 95.625 13.9045C95.6242 13.8542 95.6357 13.8213 95.6362 13.8198C95.6384 13.8131 95.6341 13.8268 95.6097 13.8693C95.513 14.0372 95.297 14.3273 95.0762 14.6227L95.3765 14.8472ZM95.0003 15.3668L95.315 15.5708C95.3862 15.4609 95.5195 15.2822 95.6768 15.0718L95.3765 14.8472L95.0762 14.6227C94.9267 14.8226 94.774 15.0265 94.6856 15.1629L95.0003 15.3668ZM94.9876 15.3865L95.3022 15.5904L95.3149 15.5708L95.0003 15.3668L94.6856 15.1629L94.6729 15.1825L94.9876 15.3865ZM95.3023 15.9804V15.6054C95.2206 15.6054 95.1554 15.6033 95.104 15.5994C95.0785 15.5975 95.0575 15.5952 95.0406 15.5928C95.0235 15.5904 95.0118 15.5881 95.0045 15.5864C94.997 15.5846 94.9963 15.5839 95.0004 15.5855C95.0043 15.5871 95.016 15.5922 95.0314 15.6029C95.0474 15.6139 95.0678 15.6312 95.0873 15.6567C95.0969 15.6693 95.1058 15.6833 95.1135 15.6984C95.1213 15.7135 95.1274 15.729 95.132 15.7443C95.1414 15.7753 95.1435 15.8025 95.1431 15.8226C95.1428 15.8421 95.1399 15.8556 95.1386 15.8612C95.1372 15.8668 95.1365 15.8678 95.1384 15.863C95.1402 15.8584 95.1437 15.8505 95.1497 15.8387C95.1556 15.827 95.1633 15.8128 95.1731 15.7958C95.1828 15.7789 95.1942 15.76 95.2073 15.7388C95.2204 15.7176 95.2349 15.6948 95.2509 15.6699C95.2669 15.645 95.2839 15.6188 95.3022 15.5904L94.9876 15.3865L94.6729 15.1825C94.6042 15.2884 94.5305 15.4013 94.4805 15.5001C94.4416 15.5769 94.3533 15.7594 94.4139 15.9605C94.488 16.2069 94.7106 16.2871 94.8292 16.3156C94.9602 16.3471 95.1234 16.3554 95.3023 16.3554V15.9804ZM93.4704 17.6478C93.6761 17.9613 93.6761 17.9613 93.6761 17.9613C93.6762 17.9613 93.6762 17.9612 93.6763 17.9612C93.6764 17.9611 93.6765 17.961 93.6767 17.9609C93.677 17.9607 93.6776 17.9603 93.6782 17.9599C93.6796 17.959 93.6815 17.9578 93.684 17.9561C93.689 17.9528 93.6963 17.948 93.7058 17.9417C93.7247 17.9292 93.7522 17.9109 93.7868 17.8878C93.856 17.8414 93.9539 17.7754 94.069 17.6962C94.2986 17.5382 94.5997 17.3259 94.8799 17.1123C95.1526 16.9043 95.4308 16.6763 95.5963 16.4896C95.639 16.4413 95.6828 16.3864 95.7181 16.3277C95.7488 16.2767 95.7981 16.1829 95.8022 16.0649C95.8044 15.9994 95.7927 15.9217 95.7519 15.8452C95.7108 15.768 95.6515 15.7134 95.5915 15.6775C95.4839 15.613 95.3702 15.6054 95.3023 15.6054V15.9804V16.3554C95.3232 16.3554 95.2728 16.3608 95.206 16.3208C95.1664 16.297 95.1218 16.2575 95.0901 16.1981C95.0587 16.1392 95.0512 16.0819 95.0526 16.0392C95.0551 15.9667 95.0832 15.9283 95.0756 15.9409C95.0727 15.9456 95.0613 15.9624 95.0349 15.9923C94.9233 16.1181 94.6992 16.307 94.4252 16.5159C94.1587 16.7191 93.8687 16.9236 93.6439 17.0783C93.5318 17.1554 93.4367 17.2196 93.3696 17.2645C93.3361 17.2869 93.3097 17.3045 93.2917 17.3164C93.2827 17.3223 93.2759 17.3268 93.2713 17.3298C93.269 17.3314 93.2673 17.3325 93.2662 17.3332C93.2657 17.3336 93.2653 17.3338 93.265 17.334C93.2649 17.3341 93.2648 17.3341 93.2647 17.3342C93.2647 17.3342 93.2647 17.3342 93.2647 17.3342C93.2647 17.3342 93.2647 17.3342 93.4704 17.6478ZM93.4704 18.6566L93.7802 18.8678C93.9802 18.5745 94.1033 18.3292 94.1543 18.1188C94.2068 17.9017 94.1911 17.674 94.0422 17.4956C93.9069 17.3334 93.7242 17.2905 93.6261 17.2775C93.5715 17.2703 93.5238 17.2697 93.4896 17.2708C93.4722 17.2713 93.4574 17.2723 93.4458 17.2733C93.44 17.2738 93.435 17.2744 93.4307 17.2748C93.4286 17.2751 93.4267 17.2753 93.425 17.2755C93.4242 17.2756 93.4234 17.2757 93.4227 17.2758C93.4223 17.2759 93.4219 17.2759 93.4216 17.276C93.4214 17.276 93.4212 17.276 93.4211 17.276C93.4208 17.276 93.4206 17.2761 93.4704 17.6478C93.5202 18.0194 93.5199 18.0195 93.5197 18.0195C93.5196 18.0195 93.5194 18.0195 93.5192 18.0196C93.5189 18.0196 93.5187 18.0196 93.5184 18.0197C93.5178 18.0197 93.5173 18.0198 93.5168 18.0199C93.5158 18.02 93.515 18.0201 93.5143 18.0202C93.5129 18.0203 93.512 18.0204 93.5116 18.0205C93.5107 18.0205 93.5114 18.0204 93.5132 18.0204C93.5176 18.0203 93.5231 18.0204 93.5276 18.021C93.5479 18.0237 93.507 18.0248 93.4664 17.9761C93.4121 17.9111 93.4438 17.8661 93.4253 17.9423C93.4053 18.0252 93.3391 18.1835 93.1606 18.4453L93.4704 18.6566ZM89.0855 20.5089L89.1946 20.8676C90.0738 20.6003 91.0719 20.2969 91.9066 19.977C92.3239 19.8171 92.7106 19.6492 93.0264 19.4749C93.3302 19.3071 93.6163 19.1081 93.7802 18.8678L93.4704 18.6566L93.1606 18.4453C93.1013 18.5322 92.9483 18.6613 92.6639 18.8183C92.3914 18.9688 92.0407 19.1224 91.6382 19.2767C90.8332 19.5852 89.8621 19.8807 88.9764 20.1501L89.0855 20.5089ZM86.7147 21.4051L87.0459 21.5809C87.0184 21.6327 86.9892 21.6461 87.0153 21.6275C87.0338 21.6144 87.0683 21.5937 87.1245 21.566C87.2365 21.511 87.3982 21.4462 87.6065 21.3721C88.0216 21.2245 88.5769 21.0555 89.1946 20.8676L89.0855 20.5089L88.9764 20.1501C88.365 20.336 87.7904 20.5107 87.3552 20.6655C87.1382 20.7426 86.9446 20.8188 86.7937 20.8929C86.7185 20.9299 86.6447 20.9708 86.5807 21.0163C86.5244 21.0563 86.4387 21.1252 86.3835 21.2292L86.7147 21.4051ZM83.6135 22.4173L83.6939 22.7836C84.1533 22.6827 84.8901 22.5211 85.538 22.3366C85.861 22.2447 86.1731 22.1439 86.4222 22.0383C86.5463 21.9857 86.6649 21.9277 86.7648 21.8635C86.8548 21.8057 86.9747 21.715 87.0459 21.581L86.7147 21.4051L86.3835 21.2292C86.4049 21.189 86.4194 21.1939 86.3594 21.2325C86.3093 21.2647 86.2334 21.3037 86.1295 21.3478C85.9225 21.4355 85.6448 21.5264 85.3326 21.6153C84.7104 21.7925 83.9961 21.9494 83.5331 22.051L83.6135 22.4173ZM83.1584 22.5322V22.1572C83.1597 22.1572 83.178 22.157 83.203 22.1607C83.214 22.1623 83.2447 22.1671 83.282 22.1816C83.301 22.1891 83.4233 22.2352 83.4868 22.3764C83.5705 22.5624 83.4774 22.7149 83.4359 22.7658C83.3956 22.8154 83.3525 22.8416 83.3412 22.8485C83.3115 22.8665 83.2868 22.8752 83.2855 22.8757C83.2744 22.8799 83.2798 22.8773 83.3253 22.8663C83.4015 22.8478 83.5272 22.8202 83.6939 22.7836L83.6135 22.4173L83.5331 22.051C83.3708 22.0866 83.2347 22.1165 83.1485 22.1374C83.1128 22.1461 83.0618 22.1587 83.0233 22.1731C83.015 22.1761 82.9853 22.1872 82.9524 22.2071C82.9394 22.215 82.8952 22.242 82.8542 22.2924C82.8121 22.3442 82.7188 22.4974 82.8028 22.6841C82.8666 22.8259 82.9896 22.8726 83.0099 22.8805C83.0485 22.8956 83.081 22.9008 83.0942 22.9028C83.1237 22.9071 83.1485 22.9072 83.1584 22.9072V22.5322ZM83.3816 22.8102V23.1852C83.4554 23.1852 83.5315 23.1801 83.6027 23.1635C83.6623 23.1496 83.7816 23.1139 83.8712 23.0051C83.9896 22.8613 83.9807 22.6904 83.9309 22.5744C83.8906 22.4804 83.8253 22.4181 83.7864 22.3851C83.7017 22.3133 83.5953 22.2597 83.5003 22.2243C83.4042 22.1885 83.2824 22.1572 83.1584 22.1572V22.5322V22.9072C83.1582 22.9072 83.1605 22.9072 83.1653 22.9078C83.1701 22.9083 83.1764 22.9093 83.1842 22.911C83.2002 22.9144 83.2188 22.9198 83.2382 22.927C83.2829 22.9437 83.3042 22.9596 83.3015 22.9573C83.2993 22.9554 83.2919 22.949 83.2823 22.9374C83.2732 22.9265 83.2562 22.9041 83.2416 22.8701C83.2267 22.8354 83.211 22.7804 83.2171 22.7121C83.2236 22.64 83.2525 22.5766 83.2922 22.5284C83.3289 22.4839 83.3678 22.4603 83.3901 22.4492C83.4128 22.4378 83.429 22.4339 83.4327 22.433C83.4386 22.4316 83.4254 22.4352 83.3816 22.4352V22.8102ZM82.086 23.0344C82.1843 23.3963 82.1843 23.3963 82.1843 23.3963C82.1843 23.3963 82.1843 23.3963 82.1843 23.3963C82.1843 23.3963 82.1843 23.3963 82.1843 23.3963C82.1843 23.3963 82.1844 23.3963 82.1845 23.3963C82.1848 23.3962 82.1852 23.3961 82.1859 23.3959C82.1872 23.3956 82.1892 23.395 82.192 23.3943C82.1976 23.3928 82.206 23.3905 82.2171 23.3876C82.2393 23.3818 82.2719 23.3735 82.3127 23.3634C82.3943 23.3431 82.5078 23.3161 82.6351 23.2892C82.8991 23.2334 83.1893 23.1852 83.3816 23.1852V22.8102V22.4352C83.1039 22.4352 82.7463 22.4991 82.48 22.5554C82.3422 22.5846 82.2199 22.6136 82.1321 22.6354C82.0881 22.6463 82.0525 22.6555 82.0277 22.662C82.0153 22.6652 82.0056 22.6678 81.9988 22.6696C81.9954 22.6705 81.9928 22.6712 81.9909 22.6717C81.99 22.6719 81.9893 22.6721 81.9887 22.6723C81.9885 22.6723 81.9883 22.6724 81.9881 22.6724C81.988 22.6725 81.9879 22.6725 81.9879 22.6725C81.9878 22.6725 81.9878 22.6725 81.9878 22.6725C81.9878 22.6725 81.9877 22.6725 82.086 23.0344ZM82.086 23.5569L82.3744 23.7966C82.4971 23.649 82.5897 23.5029 82.6307 23.355C82.6765 23.1897 82.6591 23.0065 82.5373 22.86C82.4346 22.7365 82.301 22.6939 82.2348 22.678C82.1964 22.6688 82.1628 22.6643 82.1384 22.662C82.1259 22.6609 82.1151 22.6602 82.1063 22.6599C82.102 22.6597 82.098 22.6596 82.0947 22.6595C82.093 22.6595 82.0914 22.6595 82.0899 22.6594C82.0892 22.6594 82.0885 22.6594 82.0879 22.6594C82.0876 22.6594 82.0872 22.6594 82.0869 22.6594C82.0868 22.6594 82.0866 22.6594 82.0865 22.6594C82.0863 22.6594 82.086 22.6594 82.086 23.0344C82.086 23.4094 82.0858 23.4094 82.0856 23.4094C82.0855 23.4094 82.0853 23.4094 82.0852 23.4094C82.0849 23.4094 82.0846 23.4094 82.0843 23.4094C82.0838 23.4094 82.0832 23.4094 82.0827 23.4094C82.0817 23.4094 82.0808 23.4094 82.0799 23.4094C82.0781 23.4093 82.0766 23.4093 82.0753 23.4092C82.0727 23.4091 82.0708 23.409 82.0693 23.4089C82.067 23.4086 82.0639 23.4083 82.0594 23.4072C82.0556 23.4063 82.0443 23.4033 82.0288 23.3953C82.013 23.3872 81.9864 23.3705 81.9606 23.3395C81.9328 23.3061 81.914 23.2654 81.907 23.2235C81.9005 23.1843 81.9068 23.1588 81.9079 23.1547C81.9082 23.1537 81.8922 23.2035 81.7977 23.3171L82.086 23.5569ZM81.2571 23.7397L81.2166 24.1125C81.338 24.1257 81.5355 24.1487 81.7342 24.1249C81.9398 24.1002 82.1879 24.0208 82.3744 23.7966L82.086 23.5569L81.7977 23.3171C81.7761 23.3431 81.7377 23.3691 81.6449 23.3802C81.545 23.3922 81.4322 23.3815 81.2976 23.3669L81.2571 23.7397ZM81.1509 24.0793L81.4391 23.8393C81.362 23.7468 81.3333 23.7015 81.3262 23.6877C81.3225 23.6804 81.3368 23.7045 81.3422 23.7501C81.3486 23.8043 81.3423 23.8986 81.2732 23.9859C81.2113 24.0643 81.1364 24.0883 81.1111 24.0949C81.0844 24.1019 81.0697 24.1007 81.0799 24.1007C81.1018 24.1006 81.139 24.104 81.2166 24.1125L81.2571 23.7397L81.2976 23.3669C81.2361 23.3602 81.1501 23.3503 81.0758 23.3507C81.0379 23.3509 80.9818 23.3535 80.9216 23.3692C80.8629 23.3845 80.7628 23.4222 80.6848 23.5208C80.5998 23.6284 80.5869 23.7494 80.5974 23.8383C80.6069 23.9186 80.6361 23.9855 80.6591 24.0305C80.7058 24.1213 80.779 24.2187 80.8628 24.3193L81.1509 24.0793ZM81.5149 24.5878L81.8278 24.7945C81.8935 24.695 81.899 24.5922 81.8908 24.5238C81.8832 24.4601 81.8624 24.4095 81.8486 24.38C81.821 24.3211 81.7821 24.2656 81.7503 24.2226C81.6831 24.1319 81.5764 24.0041 81.4391 23.8393L81.1509 24.0793L80.8628 24.3193C81.0081 24.4937 81.0966 24.6001 81.1474 24.6688C81.1746 24.7054 81.1754 24.7109 81.1694 24.6981C81.1663 24.6917 81.1518 24.6604 81.1461 24.6128C81.1399 24.5605 81.1429 24.4705 81.202 24.381L81.5149 24.5878ZM80.9217 24.5584V24.9334C81.0652 24.9334 81.1834 24.9493 81.286 24.9628C81.3297 24.9685 81.3944 24.9772 81.4505 24.9782C81.4786 24.9787 81.5294 24.9781 81.5863 24.9637C81.6424 24.9495 81.7517 24.9096 81.8278 24.7945L81.5149 24.5878L81.202 24.381C81.2702 24.2779 81.3657 24.2459 81.4025 24.2366C81.4233 24.2313 81.4394 24.2296 81.4479 24.2289C81.4567 24.2282 81.4624 24.2283 81.4634 24.2283C81.4646 24.2283 81.4595 24.2282 81.4434 24.2265C81.4279 24.2249 81.409 24.2225 81.3833 24.2191C81.2826 24.2059 81.1199 24.1834 80.9217 24.1834V24.5584ZM79.9666 24.3368L79.8465 24.692C80.166 24.8 80.5484 24.9334 80.9217 24.9334V24.5584V24.1834C80.6962 24.1834 80.4389 24.1006 80.0867 23.9815L79.9666 24.3368ZM78.8004 24.0793V24.4543C79.1326 24.4543 79.4647 24.563 79.8465 24.692L79.9666 24.3368L80.0867 23.9815C79.7261 23.8597 79.2767 23.7043 78.8004 23.7043V24.0793ZM79.2666 24.7965L79.4584 24.4743C79.3414 24.4046 79.2147 24.3292 79.0989 24.2538C78.9789 24.1757 78.8908 24.1105 78.8421 24.0638C78.8156 24.0385 78.8228 24.0391 78.8356 24.0643C78.8493 24.0916 78.8974 24.2115 78.8187 24.3441C78.7549 24.4514 78.6626 24.4671 78.6817 24.4622C78.6879 24.4606 78.7218 24.4543 78.8004 24.4543V24.0793V23.7043C78.6942 23.7043 78.5897 23.7117 78.4967 23.7354C78.4167 23.7557 78.2648 23.808 78.1738 23.961C78.068 24.1393 78.1214 24.314 78.1662 24.4027C78.2101 24.4894 78.2739 24.5581 78.323 24.6051C78.5127 24.7871 78.8607 24.9914 79.0749 25.1188L79.2666 24.7965ZM79.3231 24.8302L79.5153 24.5082C79.4968 24.4971 79.4777 24.4857 79.4584 24.4743L79.2666 24.7965L79.0748 25.1188C79.0943 25.1303 79.1129 25.1414 79.1309 25.1522L79.3231 24.8302ZM78.8156 25.0744L78.8145 25.4494C78.9991 25.4499 79.1577 25.4504 79.2804 25.4467C79.3833 25.4436 79.5237 25.4375 79.6319 25.3987C79.6726 25.3841 79.8523 25.3162 79.9051 25.1093C79.9576 24.9038 79.8342 24.7583 79.8058 24.7258C79.7298 24.6389 79.609 24.5641 79.5153 24.5081L79.3231 24.8302L79.1309 25.1522C79.1789 25.1808 79.2122 25.2022 79.2344 25.2179C79.2607 25.2365 79.256 25.2363 79.2414 25.2198C79.2338 25.211 79.2114 25.1843 79.1933 25.1406C79.1737 25.0936 79.1549 25.0156 79.1784 24.9237C79.202 24.8315 79.2561 24.7717 79.2968 24.7394C79.3343 24.7095 79.3674 24.6967 79.3787 24.6927C79.4002 24.685 79.4054 24.687 79.3745 24.6903C79.3487 24.693 79.3109 24.6954 79.2576 24.697C79.1503 24.7003 79.0065 24.6999 78.8167 24.6994L78.8156 25.0744ZM78.5716 25.0739V25.4489C78.6582 25.4489 78.739 25.4492 78.8145 25.4494L78.8156 25.0744L78.8167 24.6994C78.7413 24.6992 78.6594 24.6989 78.5716 24.6989V25.0739ZM77.7233 25.0082L77.6601 25.3779C77.8077 25.4031 78.0797 25.4489 78.5716 25.4489V25.0739V24.6989C78.1348 24.6989 77.9071 24.6592 77.7866 24.6386L77.7233 25.0082ZM77.5694 25.0739H77.9444C77.9444 25.046 77.9471 25.0781 77.9349 25.1219C77.927 25.1503 77.9096 25.1972 77.8703 25.2448C77.8284 25.2957 77.7767 25.3291 77.7266 25.3481C77.6815 25.3652 77.6445 25.3682 77.6279 25.3688C77.6186 25.3692 77.6116 25.369 77.6077 25.3688C77.6057 25.3687 77.6041 25.3686 77.6032 25.3686C77.6022 25.3685 77.6016 25.3684 77.6015 25.3684C77.6015 25.3684 77.6027 25.3685 77.6056 25.3689C77.6086 25.3693 77.6125 25.3699 77.6177 25.3708C77.6287 25.3725 77.6418 25.3747 77.6601 25.3779L77.7233 25.0082L77.7866 24.6386C77.7566 24.6335 77.7148 24.6261 77.6782 24.6223C77.6536 24.6198 77.5604 24.609 77.4604 24.6469C77.3135 24.7027 77.2398 24.8222 77.2123 24.921C77.1933 24.9895 77.1944 25.0559 77.1944 25.0739H77.5694ZM76.7981 24.8914L76.6739 25.2452C76.879 25.3173 77.0869 25.3905 77.2431 25.4331C77.316 25.4529 77.4088 25.4751 77.4946 25.4782C77.5317 25.4796 77.619 25.4803 77.7107 25.438C77.7627 25.414 77.826 25.3714 77.8752 25.2992C77.9259 25.2249 77.9444 25.1442 77.9444 25.0739H77.5694H77.1944C77.1944 25.0147 77.2101 24.9435 77.2554 24.8769C77.2993 24.8126 77.3547 24.7763 77.3962 24.7571C77.436 24.7387 77.4694 24.7328 77.4864 24.7306C77.5045 24.7283 77.5172 24.7286 77.5216 24.7287C77.5286 24.729 77.5075 24.7278 77.4403 24.7094C77.3162 24.6757 77.1384 24.6135 76.9224 24.5376L76.7981 24.8914ZM75.5708 24.5584V24.9334C75.6508 24.9334 75.8024 24.9631 76.0195 25.0272C76.2261 25.0881 76.4539 25.168 76.6739 25.2452L76.7981 24.8914L76.9224 24.5376C76.7064 24.4617 76.46 24.3751 76.2316 24.3078C76.0138 24.2436 75.7698 24.1834 75.5708 24.1834V24.5584ZM76.7337 25.5133C76.9164 25.1858 76.9164 25.1858 76.9164 25.1858C76.9164 25.1858 76.9164 25.1858 76.9164 25.1858C76.9164 25.1858 76.9164 25.1858 76.9163 25.1857C76.9161 25.1857 76.9159 25.1855 76.9155 25.1853C76.9148 25.1849 76.9137 25.1843 76.9123 25.1835C76.9093 25.1818 76.9048 25.1793 76.8988 25.1759C76.887 25.1692 76.8694 25.1593 76.8472 25.1466C76.8027 25.1212 76.7395 25.0848 76.6653 25.041C76.5161 24.9531 76.3257 24.8376 76.154 24.7235C75.9715 24.6022 75.8447 24.5049 75.7956 24.4521C75.7849 24.4407 75.7922 24.4461 75.8033 24.4664C75.8098 24.4783 75.8554 24.5614 75.8296 24.6794C75.7976 24.8261 75.6887 24.895 75.6319 24.9176C75.5851 24.9362 75.5555 24.9334 75.5708 24.9334V24.5584V24.1834C75.5175 24.1834 75.437 24.188 75.3549 24.2206C75.2629 24.2572 75.1346 24.3466 75.0969 24.5194C75.0654 24.6635 75.1191 24.7784 75.1455 24.8266C75.1765 24.8833 75.2155 24.9297 75.2465 24.9631C75.364 25.0893 75.5622 25.2307 75.739 25.3482C75.9266 25.4729 76.1299 25.5961 76.2844 25.6872C76.3621 25.7329 76.4283 25.7711 76.4753 25.7979C76.4988 25.8113 76.5175 25.8219 76.5304 25.8292C76.5369 25.8329 76.5419 25.8357 76.5454 25.8376C76.5471 25.8386 76.5485 25.8394 76.5494 25.8399C76.5499 25.8402 76.5502 25.8404 76.5505 25.8405C76.5506 25.8406 76.5508 25.8406 76.5508 25.8407C76.5509 25.8407 76.5509 25.8407 76.5509 25.8407C76.551 25.8408 76.551 25.8408 76.7337 25.5133ZM75.3594 25.0739L75.2183 25.4214C75.4773 25.5266 75.8354 25.6407 76.1194 25.7262C76.2634 25.7696 76.3919 25.8067 76.4845 25.833C76.5308 25.8461 76.5682 25.8566 76.5941 25.8638C76.607 25.8674 76.6171 25.8702 76.6241 25.8721C76.6275 25.873 76.6302 25.8738 76.632 25.8743C76.633 25.8745 76.6337 25.8747 76.6342 25.8748C76.6344 25.8749 76.6346 25.875 76.6347 25.875C76.6348 25.875 76.6349 25.875 76.6349 25.8751C76.6349 25.8751 76.635 25.8751 76.635 25.8751C76.635 25.8751 76.635 25.8751 76.7337 25.5133C76.8324 25.1515 76.8324 25.1515 76.8324 25.1515C76.8324 25.1515 76.8324 25.1515 76.8324 25.1515C76.8324 25.1515 76.8324 25.1515 76.8324 25.1515C76.8323 25.1515 76.8322 25.1515 76.832 25.1514C76.8316 25.1513 76.831 25.1511 76.8302 25.1509C76.8287 25.1505 76.8263 25.1498 76.8231 25.149C76.8167 25.1472 76.8072 25.1446 76.7948 25.1412C76.7701 25.1343 76.7341 25.1242 76.6893 25.1115C76.5996 25.086 76.475 25.0501 76.3358 25.0081C76.0534 24.923 75.7244 24.8174 75.5006 24.7265L75.3594 25.0739ZM75.7486 25.963L76.0611 25.7557C75.8989 25.5111 75.7465 25.2804 75.6656 25.1252C75.6462 25.0881 75.6354 25.0636 75.6303 25.0501C75.6219 25.0273 75.6364 25.0546 75.6351 25.108C75.6344 25.1383 75.628 25.2022 75.5855 25.271C75.5373 25.349 75.4637 25.3993 75.3882 25.421C75.3228 25.4399 75.2712 25.4333 75.2511 25.4298C75.2392 25.4278 75.2305 25.4254 75.2257 25.4239C75.2232 25.4231 75.2213 25.4225 75.2202 25.4221C75.219 25.4216 75.2184 25.4214 75.2183 25.4214L75.3594 25.0739L75.5006 24.7265C75.4565 24.7086 75.3275 24.6581 75.1807 24.7003C75.0891 24.7267 75.0036 24.7859 74.9475 24.8768C74.8969 24.9586 74.8865 25.0393 74.8853 25.0902C74.8831 25.1846 74.911 25.2675 74.9276 25.3121C74.9477 25.366 74.9738 25.4208 75.0006 25.4721C75.1041 25.6706 75.2835 25.9402 75.4361 26.1702L75.7486 25.963ZM76.1193 26.6543V27.0293C76.1824 27.0293 76.2777 27.014 76.3658 26.9439C76.4556 26.8724 76.4929 26.7799 76.5063 26.7122C76.5282 26.6012 76.4972 26.5072 76.4885 26.4806C76.4633 26.4033 76.4187 26.3211 76.3813 26.2563C76.3003 26.116 76.1779 25.9318 76.0611 25.7557L75.7486 25.963L75.4361 26.1702C75.5583 26.3545 75.6652 26.516 75.7318 26.6313C75.7681 26.6942 75.7769 26.7173 75.7756 26.7133C75.7745 26.71 75.7705 26.6973 75.7675 26.678C75.7649 26.6612 75.76 26.6199 75.7706 26.5665C75.782 26.5086 75.8152 26.4235 75.8987 26.3571C75.9806 26.292 76.0673 26.2793 76.1193 26.2793V26.6543ZM75.7384 26.527L75.5977 26.8746C75.6788 26.9074 75.766 26.9428 75.8416 26.9696C75.8991 26.9899 76.0117 27.0293 76.1193 27.0293V26.6543V26.2793C76.15 26.2793 76.1644 26.2848 76.1488 26.2808C76.138 26.278 76.1196 26.2724 76.0918 26.2626C76.0354 26.2426 75.9654 26.2143 75.8792 26.1794L75.7384 26.527ZM74.965 26.447H75.34C75.34 26.4754 75.3329 26.535 75.2886 26.5966C75.2436 26.6592 75.1861 26.6879 75.1496 26.6994C75.0978 26.7156 75.0812 26.7007 75.1454 26.7142C75.256 26.7376 75.4147 26.8005 75.5977 26.8746L75.7384 26.527L75.8792 26.1794C75.7186 26.1144 75.4906 26.0206 75.3004 25.9804C75.2141 25.9622 75.0685 25.9388 74.9254 25.9836C74.8433 26.0094 74.7495 26.0617 74.6796 26.1589C74.6105 26.255 74.59 26.3602 74.59 26.447H74.965ZM75.8422 27.0517V26.6767C75.6634 26.6767 75.5203 26.6282 75.433 26.569C75.347 26.5107 75.34 26.4638 75.34 26.447H74.965H74.59C74.59 26.777 74.7802 27.0325 75.0121 27.1898C75.2427 27.3462 75.5383 27.4267 75.8422 27.4267V27.0517ZM76.1193 27.5935V27.9685C76.3297 27.9685 76.5105 27.8568 76.6004 27.6749C76.6794 27.515 76.6698 27.3416 76.6249 27.2054C76.5289 26.9134 76.2427 26.6767 75.8422 26.6767V27.0517V27.4267C75.8901 27.4267 75.908 27.4391 75.9108 27.4411C75.9162 27.445 75.9148 27.4466 75.9125 27.4398C75.9123 27.439 75.8992 27.4011 75.928 27.3427C75.9439 27.3106 75.9716 27.2759 76.0131 27.2505C76.0546 27.225 76.0942 27.2185 76.1193 27.2185V27.5935ZM75.7821 27.5232L75.676 27.8829C75.7748 27.912 75.9546 27.9685 76.1193 27.9685V27.5935V27.2185C76.0864 27.2185 76.0229 27.2032 75.8881 27.1635L75.7821 27.5232ZM75.3594 27.5935H75.7344C75.7344 27.6067 75.73 27.6916 75.6494 27.7662C75.5755 27.8347 75.4995 27.8358 75.4946 27.8359C75.4873 27.836 75.4978 27.8352 75.5378 27.8446C75.5754 27.8533 75.6186 27.866 75.676 27.8829L75.7821 27.5232L75.8881 27.1635C75.8018 27.1381 75.6311 27.0835 75.4819 27.086C75.3989 27.0874 75.2584 27.106 75.1396 27.2161C75.0142 27.3323 74.9844 27.4828 74.9844 27.5935H75.3594ZM75.5444 27.9223L75.8216 27.6697C75.7958 27.6414 75.7769 27.6206 75.7605 27.601C75.7444 27.5819 75.7355 27.5697 75.7306 27.562C75.7259 27.5547 75.7271 27.5551 75.7294 27.5619C75.7321 27.5697 75.7344 27.581 75.7344 27.5935H75.3594H74.9844C74.9844 27.8915 75.1954 28.0959 75.2672 28.1748L75.5444 27.9223ZM75.8422 28.5746H76.2172C76.2172 28.0958 75.963 27.825 75.8216 27.6697L75.5444 27.9223L75.2672 28.1748C75.3382 28.2527 75.3832 28.3042 75.4163 28.3641C75.445 28.4159 75.4672 28.4795 75.4672 28.5746H75.8422ZM75.3594 28.8442L75.0425 28.6438C74.9623 28.7706 74.8399 29.0605 75.0632 29.2963C75.2458 29.4891 75.4994 29.4544 75.6173 29.42C75.9129 29.334 76.2172 29.0371 76.2172 28.5746H75.8422H75.4672C75.4672 28.6308 75.4508 28.6594 75.4392 28.6741C75.4322 28.683 75.4246 28.6897 75.4177 28.6943C75.4104 28.6993 75.4061 28.7004 75.4076 28.6999C75.4086 28.6997 75.4124 28.6986 75.419 28.6979C75.4255 28.6973 75.437 28.6967 75.4528 28.6985C75.4807 28.7018 75.5473 28.7167 75.6077 28.7805C75.6757 28.8522 75.6912 28.9386 75.686 28.9962C75.6818 29.0438 75.6655 29.0619 75.6764 29.0446L75.3594 28.8442ZM74.5418 28.0122H74.9168C74.9168 28.0235 74.9106 28.1501 74.7779 28.2288C74.7223 28.2618 74.6709 28.2682 74.6416 28.2686C74.6133 28.2689 74.5967 28.2638 74.5959 28.2636C74.5957 28.2635 74.6164 28.2707 74.657 28.2973C74.6947 28.322 74.7387 28.3564 74.7843 28.3986C74.8787 28.486 74.9564 28.585 74.9964 28.6642C75.0473 28.765 74.9905 28.7261 75.0425 28.6438L75.3594 28.8442L75.6764 29.0446C75.8463 28.776 75.7461 28.4849 75.6658 28.326C75.5746 28.1455 75.4331 27.9772 75.2937 27.8481C75.1614 27.7257 74.9863 27.5972 74.8095 27.5446C74.7278 27.5204 74.5593 27.4865 74.3953 27.5838C74.2058 27.6961 74.1668 27.8909 74.1668 28.0122H74.5418ZM74.5418 28.5746H74.9168V28.0122H74.5418H74.1668V28.5746H74.5418ZM74.309 29.0372L74.41 29.3983C74.463 29.3835 74.6629 29.3407 74.7911 29.1473C74.8987 28.9851 74.9168 28.7775 74.9168 28.5746H74.5418H74.1668C74.1668 28.662 74.1616 28.7135 74.1564 28.7417C74.1513 28.7701 74.149 28.7585 74.1661 28.7328C74.1751 28.7192 74.1873 28.7051 74.2021 28.6925C74.2167 28.6801 74.2299 28.6725 74.2381 28.6684C74.2456 28.6646 74.2487 28.664 74.2429 28.6659C74.2362 28.6681 74.2275 28.6706 74.2081 28.676L74.309 29.0372ZM73.9982 29.2169L74.2727 29.4724C74.3006 29.4424 74.3204 29.4305 74.3328 29.4243C74.3489 29.4162 74.3652 29.4108 74.41 29.3983L74.309 29.0372L74.208 28.676C74.1011 28.7059 73.9122 28.7589 73.7237 28.9614L73.9982 29.2169ZM73.7831 29.5703L74.1473 29.6597C74.1521 29.6401 74.1537 29.6331 74.1629 29.6156C74.1744 29.5937 74.2031 29.5471 74.2727 29.4724L73.9982 29.2169L73.7237 28.9614C73.619 29.0739 73.5475 29.1742 73.4987 29.2672C73.4475 29.3648 73.4287 29.4408 73.4189 29.4808L73.7831 29.5703ZM73.6407 29.6425V30.0175C73.675 30.0175 73.7168 30.0168 73.7579 30.0119C73.796 30.0074 73.8683 29.9957 73.9428 29.9521C74.032 29.8998 74.0847 29.8259 74.1142 29.7603C74.1356 29.7128 74.1464 29.6632 74.1473 29.6597L73.7831 29.5703L73.4189 29.4809C73.4125 29.507 73.4175 29.4811 73.4303 29.4527C73.4512 29.4062 73.4926 29.3466 73.5636 29.305C73.6199 29.2721 73.6671 29.2674 73.6691 29.2672C73.674 29.2666 73.6687 29.2675 73.6407 29.2675V29.6425ZM73.349 29.3513L73.0364 29.5583C73.086 29.6333 73.151 29.7331 73.2205 29.8104C73.2842 29.8812 73.4246 30.0175 73.6407 30.0175V29.6425V29.2675C73.699 29.2675 73.7422 29.2869 73.7645 29.3005C73.7834 29.3121 73.788 29.3198 73.778 29.3087C73.7688 29.2985 73.7548 29.2808 73.7337 29.251C73.7128 29.2213 73.6901 29.1872 73.6617 29.1443L73.349 29.3513ZM72.4775 28.5746L72.3533 28.9284C72.6881 29.0458 72.8647 29.2989 73.0363 29.5583L73.349 29.3513L73.6617 29.1443C73.4941 28.891 73.1979 28.4298 72.6016 28.2207L72.4775 28.5746ZM71.9718 28.7265L72.3391 28.8024C72.3444 28.7764 72.3476 28.7612 72.3508 28.7487C72.3538 28.7366 72.3545 28.7366 72.3519 28.7428C72.3491 28.7495 72.3403 28.7688 72.3214 28.7916C72.301 28.8162 72.2739 28.8387 72.2416 28.8548C72.1808 28.8853 72.1411 28.8738 72.1705 28.8775C72.1975 28.8809 72.2533 28.8933 72.3533 28.9284L72.4775 28.5746L72.6016 28.2207C72.4806 28.1782 72.3677 28.1465 72.2646 28.1335C72.164 28.1207 72.0331 28.1205 71.9062 28.184C71.7672 28.2535 71.696 28.3668 71.6593 28.455C71.628 28.5304 71.6124 28.6127 71.6046 28.6506L71.9718 28.7265ZM71.6795 29.2169L71.8961 29.523C72.2435 29.2772 72.3059 28.9629 72.3391 28.8024L71.9718 28.7265L71.6046 28.6506C71.5892 28.7251 71.5796 28.7646 71.5614 28.8017C71.5468 28.8317 71.5218 28.8691 71.4629 28.9108L71.6795 29.2169ZM71.5476 29.6714L71.8204 29.4141C71.8054 29.3983 71.7973 29.3896 71.7908 29.3821C71.7846 29.375 71.7854 29.3751 71.7888 29.3804C71.797 29.393 71.8249 29.4427 71.8198 29.5154C71.815 29.5843 71.7843 29.618 71.7904 29.6106C71.7976 29.6019 71.8253 29.5731 71.8961 29.523L71.6795 29.2169L71.4629 28.9108C71.3655 28.9797 71.2787 29.0524 71.2123 29.1328C71.1448 29.2144 71.0813 29.3249 71.0716 29.4629C71.0617 29.6048 71.1127 29.7161 71.1591 29.7878C71.2004 29.8516 71.2529 29.9056 71.2748 29.9288L71.5476 29.6714ZM71.6795 29.9193H72.0545C72.0545 29.6409 71.8674 29.464 71.8204 29.4141L71.5476 29.6714L71.2748 29.9288C71.2829 29.9374 71.2893 29.9441 71.2954 29.9508C71.3013 29.9572 71.3059 29.9624 71.3097 29.9668C71.3174 29.9759 71.3196 29.9794 71.3193 29.9788C71.3186 29.9778 71.3146 29.9711 71.3108 29.9595C71.3068 29.9471 71.3045 29.9332 71.3045 29.9193H71.6795ZM71.0913 29.2169H70.7163C70.7163 29.4008 70.7804 29.5747 70.8491 29.7093C70.9204 29.8491 71.0133 29.9793 71.1073 30.0831C71.1895 30.174 71.3137 30.2911 71.458 30.3442C71.5261 30.3693 71.7033 30.417 71.8719 30.2968C72.0383 30.1782 72.0545 29.9962 72.0545 29.9193H71.6795H71.3045C71.3045 29.9171 71.3022 29.7818 71.4366 29.6861C71.573 29.5888 71.7042 29.6357 71.7172 29.6404C71.7511 29.6529 71.7283 29.6515 71.6634 29.5799C71.6104 29.5213 71.5563 29.4451 71.5172 29.3686C71.4756 29.287 71.4663 29.2349 71.4663 29.2169H71.0913ZM70.4226 28.5746H70.7976C70.7976 28.5983 70.79 28.7187 70.6696 28.8048C70.5598 28.8834 70.4551 28.8605 70.4415 28.8573C70.4127 28.8506 70.4394 28.8524 70.5089 28.9137C70.5674 28.9652 70.6257 29.0326 70.6669 29.0999C70.6871 29.1329 70.7004 29.1615 70.7082 29.184C70.7162 29.2069 70.7163 29.2174 70.7163 29.2169H71.0913H71.4663C71.4663 29.0194 71.3877 28.8409 71.3067 28.7085C71.2225 28.5709 71.1137 28.447 71.005 28.3512C70.9073 28.265 70.7669 28.1633 70.6127 28.1271C70.5364 28.1093 70.3794 28.0902 70.2331 28.195C70.0761 28.3073 70.0476 28.4762 70.0476 28.5746H70.4226ZM70.0789 29.2169V29.5919C70.2298 29.5919 70.3789 29.5529 70.5052 29.4566C70.6285 29.3624 70.696 29.2393 70.7338 29.1311C70.802 28.9353 70.7976 28.7038 70.7976 28.5746H70.4226H70.0476C70.0476 28.6517 70.0474 28.7154 70.0432 28.7738C70.0389 28.8329 70.0316 28.8669 70.0255 28.8842C70.0203 28.8993 70.0234 28.8808 70.05 28.8604C70.0796 28.8379 70.0999 28.8419 70.0789 28.8419V29.2169ZM69.899 29.4501L70.2733 29.4732C70.2756 29.4355 70.2767 29.4223 70.278 29.4143C70.2791 29.4067 70.2768 29.4315 70.2573 29.4664C70.2332 29.5094 70.1935 29.5492 70.1434 29.5731C70.1008 29.5934 70.0721 29.5919 70.0789 29.5919V29.2169V28.8419C70.003 28.8419 69.9114 28.8528 69.8209 28.896C69.7228 28.9427 69.65 29.0157 69.6027 29.1003C69.56 29.1767 69.5442 29.2516 69.5367 29.3002C69.5293 29.3484 69.5265 29.3978 69.5247 29.4269L69.899 29.4501ZM69.663 29.9193L69.8687 30.2328C70.0431 30.1184 70.1504 29.9737 70.2092 29.8185C70.263 29.6764 70.2692 29.5396 70.2733 29.4733L69.899 29.4501L69.5247 29.4269C69.5199 29.5045 69.5159 29.5316 69.5079 29.5527C69.5051 29.5601 69.5019 29.5659 69.4969 29.5721C69.4919 29.5784 69.4808 29.5904 69.4572 29.6058L69.663 29.9193ZM69.4654 29.8211L69.0911 29.7976C69.0891 29.8304 69.0847 29.8903 69.0876 29.9444C69.089 29.9731 69.0931 30.0183 69.1082 30.0684C69.1233 30.1189 69.1562 30.1967 69.2307 30.2633C69.4025 30.417 69.6026 30.3612 69.6632 30.3403C69.7387 30.3143 69.8104 30.2711 69.8687 30.2328L69.663 29.9193L69.4572 29.6058C69.4093 29.6373 69.4019 29.6371 69.4188 29.6312C69.4209 29.6305 69.5829 29.5721 69.7306 29.7042C69.793 29.76 69.8174 29.8224 69.8266 29.853C69.8357 29.8834 69.8365 29.9046 69.8365 29.9055C69.8367 29.9082 69.8364 29.9054 69.8369 29.8929C69.8374 29.8806 69.8383 29.8661 69.8396 29.8446L69.4654 29.8211ZM69.3247 29.2169L69.0301 29.4489C69.0979 29.535 69.1013 29.6349 69.0911 29.7976L69.4654 29.8211L69.8396 29.8446C69.849 29.6947 69.8823 29.3188 69.6192 28.9848L69.3247 29.2169ZM69.3786 28.3406L69.0335 28.1938C68.9912 28.2932 68.9086 28.484 68.8717 28.6925C68.8354 28.8982 68.8304 29.1954 69.0301 29.4489L69.3247 29.2169L69.6192 28.9848C69.6119 28.9756 69.5899 28.9381 69.6103 28.8231C69.6301 28.7108 69.678 28.5948 69.7237 28.4874L69.3786 28.3406ZM69.3247 28.2761L69.5746 28.5556C69.6079 28.5259 69.6096 28.5271 69.5947 28.5364C69.589 28.54 69.5763 28.5476 69.5579 28.5557C69.542 28.5627 69.5053 28.5776 69.4547 28.5831C69.4026 28.5888 69.3103 28.5867 69.2172 28.5272C69.1208 28.4656 69.0778 28.3773 69.0607 28.3164C69.0451 28.2606 69.0468 28.215 69.0482 28.1952C69.0498 28.1724 69.0534 28.1554 69.0552 28.1476C69.0587 28.1324 69.0619 28.1245 69.06 28.1298C69.0563 28.14 69.049 28.1574 69.0335 28.1938L69.3786 28.3406L69.7237 28.4874C69.7361 28.4582 69.7524 28.4201 69.7643 28.3875C69.7702 28.3714 69.7793 28.3454 69.7861 28.3156C69.7888 28.3038 69.8116 28.2163 69.7829 28.1138C69.7648 28.0493 69.72 27.9584 69.6211 27.8952C69.5255 27.8341 69.4298 27.8314 69.3735 27.8375C69.2789 27.8478 69.2112 27.8917 69.198 27.8999C69.1519 27.9287 69.1071 27.9676 69.0747 27.9966L69.3247 28.2761ZM68.277 28.5746L68.2769 28.9496C68.5504 28.9496 69.1206 28.9616 69.5746 28.5556L69.3247 28.2761L69.0747 27.9966C68.8609 28.1878 68.5797 28.1996 68.2771 28.1996L68.277 28.5746ZM68.2656 28.5746V28.9496H68.277V28.5746V28.1996H68.2656V28.5746ZM67.9038 28.8408L68.1946 29.0776C68.2177 29.0492 68.2376 29.0249 68.2582 29.0018C68.2786 28.9788 68.2954 28.9619 68.3092 28.95C68.3235 28.9377 68.3285 28.936 68.3241 28.9381C68.3186 28.9407 68.2978 28.9496 68.2656 28.9496V28.5746V28.1996C68.059 28.1996 67.905 28.3081 67.819 28.3824C67.7289 28.4602 67.6544 28.5531 67.613 28.604L67.9038 28.8408ZM67.7616 28.8442H67.3866C67.3866 28.8887 67.3876 28.9802 67.4223 29.0685C67.441 29.116 67.4886 29.2124 67.6007 29.2748C67.726 29.3446 67.8494 29.3276 67.9238 29.3014C67.9901 29.2781 68.0365 29.2423 68.0583 29.2244C68.0836 29.2035 68.1043 29.1824 68.1186 29.1669C68.1464 29.1371 68.175 29.1016 68.1946 29.0776L67.9038 28.8408L67.613 28.604C67.5881 28.6347 67.5767 28.6483 67.5695 28.6561C67.5663 28.6595 67.5708 28.6543 67.5811 28.6458C67.5879 28.6401 67.6207 28.613 67.6748 28.594C67.737 28.5721 67.8496 28.555 67.9656 28.6196C68.0682 28.6768 68.108 28.7628 68.1203 28.7941C68.1422 28.8499 68.1366 28.8853 68.1366 28.8442H67.7616ZM68.9909 27.5935V27.2185C68.4341 27.2185 68.0281 27.5351 67.7778 27.8612C67.6514 28.0257 67.5563 28.2023 67.4918 28.3659C67.4298 28.5235 67.3866 28.6937 67.3866 28.8442H67.7616H68.1366C68.1366 28.8223 68.1467 28.75 68.1897 28.6407C68.2303 28.5375 68.292 28.423 68.3726 28.3179C68.5363 28.1048 68.745 27.9685 68.9909 27.9685V27.5935ZM70.188 27.2L69.9772 26.8899C69.7312 27.0571 69.4965 27.2185 68.9909 27.2185V27.5935V27.9685C69.722 27.9685 70.1099 27.7066 70.3988 27.5101L70.188 27.2ZM70.4226 27.0517L70.2448 26.7215C70.1458 26.7748 70.0538 26.8378 69.9772 26.8899L70.188 27.2L70.3988 27.5101C70.4818 27.4537 70.5415 27.4136 70.6005 27.3818L70.4226 27.0517ZM70.0789 26.447L69.9064 26.7799C69.9855 26.8209 70.0577 26.862 70.1167 26.9017C70.1794 26.9438 70.2087 26.9722 70.2175 26.9831C70.2298 26.9982 70.1723 26.9369 70.1952 26.8275C70.2175 26.7203 70.2901 26.6971 70.2448 26.7215L70.4226 27.0517L70.6005 27.3818C70.727 27.3137 70.8855 27.1908 70.9293 26.9807C70.9737 26.7684 70.8732 26.6008 70.7996 26.5102C70.6583 26.3362 70.4186 26.2006 70.2513 26.114L70.0789 26.447ZM70.0878 25.8725L69.7478 25.7142C69.6852 25.8488 69.6235 26.0189 69.6103 26.1873C69.5978 26.3461 69.6259 26.6347 69.9064 26.7799L70.0789 26.447L70.2513 26.114C70.2735 26.1255 70.2955 26.1423 70.3143 26.164C70.3326 26.1854 70.3436 26.2065 70.3498 26.2229C70.361 26.2524 70.3565 26.2651 70.358 26.2461C70.3593 26.2293 70.3644 26.2006 70.3769 26.1601C70.3892 26.1206 70.4064 26.0766 70.4278 26.0307L70.0878 25.8725ZM70.0878 25.8725L70.2668 26.202C70.3802 26.1404 70.4987 26.0619 70.5941 25.9649C70.6838 25.8737 70.7976 25.72 70.7976 25.5133H70.4226H70.0476C70.0476 25.4731 70.0592 25.4458 70.0647 25.4352C70.0697 25.4256 70.0708 25.4274 70.0594 25.439C70.035 25.4638 69.9861 25.501 69.9089 25.5429L70.0878 25.8725ZM70.4226 25.5133H70.7976C70.7976 25.4712 70.7943 25.3596 70.7192 25.2539C70.6754 25.1924 70.61 25.1375 70.5241 25.1082C70.4421 25.0801 70.3672 25.0842 70.3139 25.0951C70.2181 25.1145 70.1502 25.1639 70.1204 25.1871C70.0831 25.2162 70.0511 25.2484 70.0254 25.2769C69.9265 25.3867 69.8239 25.5507 69.7478 25.7142L70.0878 25.8725L70.4278 26.0307C70.4818 25.9145 70.5466 25.8189 70.5826 25.779C70.5906 25.7701 70.5903 25.7718 70.5816 25.7785C70.5803 25.7795 70.5379 25.8149 70.4633 25.83C70.4206 25.8387 70.3553 25.8431 70.2816 25.8179C70.2041 25.7914 70.1459 25.7419 70.108 25.6886C70.0445 25.5995 70.0476 25.5154 70.0476 25.5133H70.4226ZM69.3247 26.1V26.475C69.5963 26.475 69.9833 26.3559 70.2668 26.202L70.0878 25.8725L69.9089 25.5429C69.6982 25.6573 69.4349 25.725 69.3247 25.725V26.1ZM69.3997 25.47L69.0527 25.3277C68.987 25.488 68.905 25.6839 68.8725 25.8398C68.8581 25.9084 68.834 26.0496 68.891 26.191C68.9247 26.2747 68.9858 26.3555 69.0788 26.4103C69.1666 26.4621 69.256 26.475 69.3247 26.475V26.1V25.725C69.3475 25.725 69.4004 25.7292 69.4599 25.7643C69.5246 25.8025 69.5657 25.8587 69.5866 25.9106C69.6049 25.956 69.605 25.9903 69.6049 25.998C69.6048 26.0072 69.6038 26.0067 69.6067 25.9929C69.6127 25.9641 69.6268 25.9174 69.653 25.847C69.6786 25.7785 69.7101 25.7014 69.7466 25.6124L69.3997 25.47ZM69.663 24.5584H69.288C69.288 24.635 69.2664 24.7451 69.2199 24.8894C69.1745 25.0304 69.1144 25.1773 69.0527 25.3277L69.3997 25.47L69.7466 25.6124C69.8063 25.4669 69.8779 25.2929 69.9338 25.1194C69.9886 24.9493 70.038 24.7515 70.038 24.5584H69.663ZM69.7487 23.9237L69.383 23.8408C69.348 23.9952 69.288 24.2552 69.288 24.5584H69.663H70.038C70.038 24.3478 70.0794 24.1612 70.1144 24.0067L69.7487 23.9237ZM69.663 23.7465L69.8805 24.052C69.8924 24.0435 69.8954 24.0421 69.8917 24.0442C69.891 24.0445 69.8661 24.0588 69.8248 24.0677C69.7836 24.0765 69.6823 24.0887 69.5755 24.0247C69.4657 23.959 69.4278 23.8599 69.4157 23.8125C69.4043 23.7675 69.4065 23.7347 69.4067 23.7314C69.407 23.7243 69.4076 23.7238 69.4058 23.7341C69.4021 23.7559 69.3952 23.7871 69.383 23.8407L69.7487 23.9237L70.1144 24.0067C70.1249 23.9606 70.1373 23.9063 70.1453 23.8595C70.15 23.8319 70.1689 23.7312 70.1426 23.6278C70.1264 23.564 70.0812 23.4533 69.9607 23.3812C69.843 23.3107 69.7272 23.3215 69.6675 23.3343C69.565 23.3563 69.4816 23.4153 69.4455 23.441L69.663 23.7465ZM67.805 23.6337L67.7505 24.0047C68.0869 24.0541 68.5155 24.1172 68.8843 24.1507C69.0679 24.1673 69.2476 24.1777 69.3992 24.1737C69.4747 24.1717 69.5526 24.166 69.6252 24.1527C69.6891 24.1409 69.7899 24.1165 69.8805 24.052L69.663 23.7465L69.4455 23.441C69.4895 23.4097 69.5184 23.4097 69.4896 23.415C69.4695 23.4187 69.4339 23.4226 69.3794 23.424C69.271 23.4268 69.1249 23.4194 68.9521 23.4037C68.6079 23.3725 68.2008 23.3128 67.8595 23.2627L67.805 23.6337ZM67.1963 23.5569V23.9319C67.1957 23.9319 67.1997 23.9319 67.2101 23.9326C67.2199 23.9332 67.2328 23.9343 67.2492 23.936C67.2822 23.9393 67.3241 23.9443 67.3749 23.951C67.4767 23.9645 67.6043 23.9832 67.7505 24.0047L67.805 23.6337L67.8595 23.2627C67.7152 23.2415 67.5814 23.2218 67.473 23.2075C67.3734 23.1944 67.2684 23.1819 67.1963 23.1819V23.5569ZM67.2731 23.1563L66.9388 22.9865C66.8946 23.0734 66.8241 23.209 66.7897 23.3246C66.776 23.3706 66.7406 23.4956 66.7818 23.6313C66.8071 23.7147 66.8617 23.8024 66.9561 23.8631C67.044 23.9197 67.1338 23.9319 67.1963 23.9319V23.5569V23.1819C67.2272 23.1819 67.2924 23.1877 67.3621 23.2325C67.4382 23.2815 67.4808 23.352 67.4994 23.4134C67.5157 23.467 67.5126 23.5081 67.5112 23.5213C67.5096 23.5366 67.5071 23.5434 67.5086 23.5383C67.5119 23.5273 67.521 23.5032 67.5404 23.4615C67.5591 23.4214 67.5814 23.3773 67.6074 23.3261L67.2731 23.1563ZM67.1963 22.8102L67.3552 23.1499C67.3851 23.1359 67.3977 23.1323 67.3971 23.1325C67.3963 23.1327 67.3882 23.1349 67.3743 23.1362C67.3608 23.1376 67.3357 23.1388 67.3033 23.1333C67.227 23.1203 67.1313 23.0721 67.0736 22.9701C67.027 22.8879 67.0318 22.8158 67.0331 22.7995C67.0357 22.7692 67.0421 22.7691 67.0181 22.824C66.9985 22.8685 66.972 22.9211 66.9388 22.9865L67.2731 23.1563L67.6075 23.3261C67.6381 23.2658 67.6753 23.1929 67.7051 23.1248C67.7304 23.067 67.7717 22.967 67.7805 22.8622C67.785 22.8087 67.7857 22.7057 67.7262 22.6005C67.6554 22.4757 67.5378 22.4123 67.4287 22.3938C67.3362 22.3782 67.2544 22.3942 67.2028 22.4081C67.1462 22.4233 67.0903 22.4458 67.0375 22.4705L67.1963 22.8102ZM64.9535 23.0362L64.9498 23.4112C65.2818 23.4144 65.7265 23.4189 66.1551 23.3909C66.5705 23.3637 67.0265 23.3036 67.3552 23.1499L67.1963 22.8102L67.0375 22.4705C66.8469 22.5596 66.5154 22.6157 66.1061 22.6425C65.7101 22.6684 65.293 22.6645 64.9571 22.6613L64.9535 23.0362ZM64.6903 23.0344V23.4094C64.7658 23.4094 64.8525 23.4103 64.9498 23.4112L64.9535 23.0362L64.9571 22.6613C64.8608 22.6603 64.7702 22.6594 64.6903 22.6594V23.0344ZM64.7115 22.5881L64.4359 22.3338C64.4012 22.3714 64.3485 22.4283 64.2996 22.4896C64.2545 22.546 64.1908 22.6326 64.1515 22.7327C64.1155 22.8244 64.057 23.0512 64.2338 23.2417C64.376 23.3949 64.5774 23.4094 64.6903 23.4094V23.0344V22.6594C64.662 22.6594 64.6597 22.6565 64.6733 22.6603C64.6867 22.664 64.7356 22.6799 64.7835 22.7315C64.837 22.7891 64.8596 22.8593 64.8622 22.9184C64.8643 22.9688 64.8518 23.0012 64.8496 23.0067C64.8465 23.0146 64.8523 22.9994 64.8857 22.9575C64.9153 22.9205 64.95 22.8827 64.9872 22.8423L64.7115 22.5881ZM64.6903 22.5322L64.8684 22.8622C64.9051 22.8424 64.9067 22.8436 64.8914 22.849C64.8858 22.8509 64.8719 22.8557 64.8527 22.8597C64.8377 22.8628 64.7941 22.8712 64.7373 22.8644C64.679 22.8573 64.5568 22.8262 64.4739 22.7022C64.3954 22.5849 64.4093 22.4684 64.4184 22.4234C64.4282 22.3746 64.4457 22.3402 64.4522 22.3279C64.4605 22.3123 64.4679 22.3014 64.4711 22.2968C64.4774 22.2877 64.481 22.2838 64.4774 22.2881C64.4703 22.2964 64.4585 22.3093 64.4359 22.3338L64.7115 22.5881L64.9872 22.8423C65.0056 22.8223 65.0297 22.7963 65.049 22.7736C65.0586 22.7623 65.073 22.7449 65.0871 22.7246C65.091 22.7189 65.1362 22.6582 65.1536 22.5715C65.1633 22.5234 65.177 22.4044 65.0973 22.2853C65.0132 22.1594 64.8888 22.1272 64.8273 22.1198C64.7279 22.1078 64.6473 22.1398 64.6411 22.142C64.5955 22.1581 64.5479 22.1829 64.5122 22.2022L64.6903 22.5322ZM63.4475 22.8102V23.1852C63.9342 23.1852 64.3976 23.1162 64.8684 22.8622L64.6903 22.5322L64.5122 22.2022C64.1861 22.3782 63.8571 22.4352 63.4475 22.4352V22.8102ZM63.1245 22.5985L62.7989 22.7846C62.8241 22.8288 62.886 22.9453 62.9959 23.0356C63.1233 23.1403 63.2777 23.1852 63.4475 23.1852V22.8102V22.4352C63.428 22.4352 63.4264 22.4327 63.4355 22.4357C63.4402 22.4372 63.4463 22.4397 63.4533 22.4435C63.4603 22.4473 63.4666 22.4517 63.4719 22.456C63.4824 22.4647 63.4853 22.4702 63.4807 22.4637C63.4784 22.4604 63.4749 22.455 63.4696 22.4462C63.4641 22.437 63.4583 22.4269 63.45 22.4124L63.1245 22.5985ZM62.5983 22.3172L62.6008 22.6922C62.6668 22.6918 62.7067 22.6984 62.7287 22.7041C62.7394 22.7069 62.7459 22.7095 62.7491 22.7109C62.7507 22.7117 62.7518 22.7123 62.7523 22.7126C62.7529 22.7129 62.7531 22.7131 62.7532 22.7131C62.7532 22.7131 62.7532 22.7131 62.7533 22.7132C62.7533 22.7132 62.7535 22.7134 62.7539 22.7138C62.7547 22.7146 62.7568 22.7168 62.7603 22.7215C62.769 22.7332 62.7781 22.7481 62.7989 22.7846L63.1245 22.5985L63.45 22.4124C63.4146 22.3504 63.3382 22.2077 63.1849 22.0998C63.0253 21.9875 62.8286 21.9407 62.5958 21.9422L62.5983 22.3172ZM61.422 22.07L61.2142 22.3822C61.4176 22.5176 61.5935 22.6093 61.8273 22.6545C62.0371 22.695 62.2813 22.6943 62.6008 22.6922L62.5983 22.3172L62.5958 21.9422C62.2525 21.9445 62.091 21.9416 61.9696 21.9181C61.8722 21.8993 61.7913 21.8653 61.6297 21.7578L61.422 22.07ZM61.3992 21.8271L61.1848 21.5194C61.1731 21.5276 61.1311 21.556 61.0912 21.5942C61.0524 21.6313 60.9845 21.7062 60.9541 21.8211C60.8765 22.1145 61.0971 22.3043 61.2142 22.3822L61.422 22.07L61.6297 21.7578C61.6045 21.741 61.6244 21.7482 61.6484 21.7869C61.68 21.8378 61.7036 21.9207 61.6792 22.0128C61.6593 22.0881 61.6175 22.1286 61.6098 22.136C61.601 22.1444 61.5951 22.1477 61.6136 22.1347L61.3992 21.8271ZM61.1813 21.7766V22.1516C61.2528 22.1516 61.2994 22.1523 61.3291 22.1536C61.3733 22.1556 61.3497 22.158 61.3094 22.1456C61.2954 22.1412 61.2666 22.1313 61.2331 22.111C61.2004 22.0912 61.1433 22.0493 61.1019 21.9731C60.9967 21.7796 61.1019 21.615 61.1285 21.5791C61.1462 21.5553 61.1628 21.5394 61.1706 21.5322C61.1793 21.5242 61.1861 21.5189 61.1885 21.517C61.1921 21.5142 61.1941 21.513 61.1848 21.5194L61.3992 21.8271L61.6136 22.1347C61.6183 22.1315 61.633 22.1214 61.647 22.1105C61.6557 22.1038 61.6953 22.0739 61.7306 22.0264C61.762 21.9841 61.8688 21.8136 61.7608 21.6149C61.6827 21.4713 61.5455 21.4335 61.5307 21.4289C61.4653 21.4087 61.3949 21.4058 61.3623 21.4044C61.3152 21.4023 61.2549 21.4016 61.1813 21.4016V21.7766ZM59.3831 21.7766V22.1516H61.1813V21.7766V21.4016H59.3831V21.7766ZM59.7088 21.188V20.813C59.5424 20.813 59.3638 20.8797 59.2342 20.9415C59.095 21.0079 58.9431 21.1022 58.829 21.212C58.774 21.2649 58.7048 21.343 58.662 21.4443C58.615 21.5555 58.5897 21.7287 58.6984 21.8922C58.7914 22.032 58.9347 22.0883 59.0303 22.1137C59.1348 22.1415 59.2548 22.1516 59.3831 22.1516V21.7766V21.4016C59.2875 21.4016 59.2396 21.3933 59.2231 21.3889C59.1976 21.3821 59.2667 21.3924 59.323 21.477C59.3541 21.5238 59.3704 21.5782 59.3716 21.6315C59.3727 21.681 59.3607 21.7175 59.3528 21.7364C59.3391 21.7687 59.3274 21.7733 59.3489 21.7526C59.3878 21.7152 59.4651 21.6624 59.5572 21.6184C59.6009 21.5975 59.6409 21.5821 59.6729 21.5725C59.7086 21.5618 59.719 21.563 59.7088 21.563V21.188ZM59.7088 20.8961L59.8298 21.2511C59.9034 21.226 59.9508 21.2153 59.9771 21.2113C60.009 21.2066 59.9906 21.2147 59.9472 21.2025C59.8926 21.1872 59.7877 21.1329 59.7443 21.0019C59.7085 20.894 59.7428 20.8132 59.75 20.7974C59.7658 20.7627 59.7713 20.773 59.7364 20.796C59.706 20.8161 59.6933 20.813 59.7088 20.813V21.188V21.563C59.8856 21.563 60.0408 21.4937 60.1496 21.4219C60.2539 21.353 60.3699 21.2458 60.4325 21.1083C60.4631 21.0412 60.5048 20.9128 60.4562 20.766C60.4 20.5962 60.2618 20.5118 60.1494 20.4803C60.048 20.4519 59.947 20.4576 59.8672 20.4694C59.7819 20.4821 59.6884 20.5069 59.5877 20.5412L59.7088 20.8961ZM58.2206 20.9553L58.1872 21.3288C58.7324 21.3775 59.2944 21.4337 59.8298 21.2511L59.7088 20.8961L59.5877 20.5412C59.2307 20.663 58.8377 20.6339 58.2539 20.5818L58.2206 20.9553ZM57.1757 20.8961V21.2711C57.5392 21.2711 57.8686 21.3004 58.1872 21.3288L58.2206 20.9553L58.2539 20.5818C57.9377 20.5535 57.5771 20.5211 57.1757 20.5211V20.8961ZM56.5377 20.4819V20.1069C56.3647 20.1069 56.1548 20.1309 56.0003 20.2448C55.9105 20.3111 55.8088 20.434 55.8083 20.6119C55.8079 20.7761 55.8951 20.8928 55.9595 20.9562C56.085 21.0797 56.2705 21.1517 56.4502 21.1957C56.6444 21.2432 56.8872 21.2711 57.1757 21.2711V20.8961V20.5211C56.9328 20.5211 56.7518 20.4973 56.6285 20.4672C56.4909 20.4335 56.4655 20.4019 56.4857 20.4218C56.4976 20.4335 56.5586 20.4984 56.5583 20.614C56.5579 20.7433 56.4827 20.821 56.4455 20.8484C56.3963 20.8847 56.3967 20.8569 56.5377 20.8569V20.4819ZM56.2265 20.1784V20.5534C56.4546 20.5534 56.6048 20.5714 56.6916 20.5913C56.7358 20.6015 56.7509 20.6093 56.7479 20.6077C56.7459 20.6066 56.7325 20.5997 56.7145 20.5839C56.697 20.5686 56.6658 20.5367 56.6422 20.4845C56.6166 20.4278 56.6051 20.3576 56.6199 20.2844C56.6339 20.2149 56.6666 20.1661 56.6916 20.1378C56.7353 20.0882 56.7747 20.0778 56.7609 20.0829C56.7426 20.0897 56.672 20.1069 56.5377 20.1069V20.4819V20.8569C56.7176 20.8569 56.8873 20.8361 57.0221 20.786C57.0848 20.7627 57.179 20.719 57.2541 20.6339C57.2948 20.5878 57.3373 20.5207 57.3551 20.4325C57.3736 20.3406 57.3599 20.2514 57.3257 20.1757C57.2649 20.0413 57.1524 19.9725 57.0917 19.9411C57.0197 19.904 56.9392 19.8786 56.8593 19.8603C56.698 19.8233 56.4867 19.8034 56.2265 19.8034V20.1784ZM54.7347 19.9335L54.6341 20.2947C55.0103 20.3995 55.5577 20.5534 56.2265 20.5534V20.1784V19.8034C55.67 19.8034 55.21 19.6766 54.8354 19.5722L54.7347 19.9335ZM54.2056 19.8218V20.1968C54.2698 20.1968 54.3871 20.2259 54.6341 20.2947L54.7347 19.9335L54.8354 19.5722C54.6363 19.5168 54.3981 19.4468 54.2056 19.4468V19.8218ZM54.2056 19.4134V19.0384C54.0101 19.0384 53.8083 19.0627 53.6541 19.1603C53.5678 19.2149 53.4793 19.304 53.4401 19.4356C53.4011 19.5666 53.4267 19.6867 53.4662 19.7732C53.5379 19.9305 53.6757 20.032 53.7836 20.0893C53.9017 20.1519 54.0495 20.1968 54.2056 20.1968V19.8218V19.4468C54.1893 19.4468 54.1613 19.4407 54.1351 19.4267C54.1232 19.4204 54.1181 19.4159 54.1187 19.4164C54.1193 19.4169 54.1227 19.4201 54.1277 19.4266C54.1326 19.4329 54.1406 19.4446 54.1486 19.462C54.1648 19.4975 54.1837 19.5665 54.1589 19.6497C54.134 19.7334 54.0807 19.7778 54.055 19.7941C54.0325 19.8084 54.0264 19.805 54.0567 19.7991C54.0847 19.7937 54.1323 19.7884 54.2056 19.7884V19.4134ZM55.0579 19.0729V19.4479C55.1471 19.4479 55.1912 19.4531 55.2054 19.4559C55.2135 19.4574 55.1961 19.4553 55.1677 19.4414C55.1467 19.4311 55.0566 19.3844 55.0091 19.2668C54.9522 19.1263 55.0009 19.0051 55.0373 18.9486C55.0689 18.8997 55.1027 18.8766 55.1056 18.8746C55.1154 18.8676 55.1058 18.8757 55.0605 18.8931C54.8832 18.9612 54.5196 19.0384 54.2056 19.0384V19.4134V19.7884C54.6087 19.7884 55.0637 19.6953 55.3295 19.5932C55.3949 19.5681 55.4727 19.5336 55.5388 19.4868C55.5699 19.4648 55.6242 19.4224 55.6675 19.3552C55.7158 19.2804 55.7676 19.1419 55.7043 18.9855C55.6502 18.8519 55.5441 18.7905 55.4966 18.7673C55.4416 18.7405 55.3871 18.727 55.3466 18.7193C55.2637 18.7034 55.1649 18.6979 55.0579 18.6979V19.0729ZM53.2317 18.7006L53.1342 19.0627C53.4542 19.1489 53.808 19.2442 54.1382 19.3178C54.4624 19.39 54.7923 19.4479 55.0579 19.4479V19.0729V18.6979C54.8801 18.6979 54.6185 18.6564 54.3013 18.5857C53.9901 18.5164 53.6525 18.4256 53.3292 18.3385L53.2317 18.7006ZM52.0954 18.4492V18.8242C52.1472 18.8242 52.2672 18.8429 52.468 18.89C52.6577 18.9345 52.8846 18.9956 53.1342 19.0627L53.2317 18.7006L53.3292 18.3385C53.0833 18.2723 52.8434 18.2077 52.6393 18.1598C52.4465 18.1146 52.2461 18.0742 52.0954 18.0742V18.4492ZM52.5068 18.3466L52.4399 17.9776C52.2824 18.0061 52.1308 18.0335 52.0394 18.054C52.0162 18.0592 51.9904 18.0653 51.9667 18.0723C51.9552 18.0757 51.9381 18.0809 51.9194 18.0883C51.9124 18.091 51.8592 18.1107 51.8071 18.1546C51.785 18.1732 51.706 18.2423 51.6801 18.367C51.6459 18.5319 51.726 18.6595 51.7969 18.7233C51.8538 18.7746 51.9117 18.795 51.9307 18.8015C51.9566 18.8102 51.9785 18.8145 51.9911 18.8167C52.0338 18.8241 52.076 18.8242 52.0954 18.8242V18.4492V18.0742C52.076 18.0742 52.0918 18.073 52.1193 18.0777C52.1281 18.0793 52.1469 18.0829 52.1704 18.0908C52.187 18.0964 52.2432 18.1159 52.299 18.1662C52.3688 18.2291 52.4485 18.3557 52.4145 18.5194C52.3888 18.6431 52.3107 18.7109 52.2901 18.7283C52.2606 18.7531 52.2342 18.7673 52.2234 18.7729C52.2102 18.7797 52.1996 18.784 52.1941 18.7862C52.1881 18.7886 52.1835 18.7901 52.1813 18.7908C52.1788 18.7917 52.1774 18.7921 52.1772 18.7921C52.177 18.7922 52.179 18.7916 52.184 18.7904C52.1888 18.7892 52.1952 18.7877 52.2034 18.7858C52.2756 18.7696 52.4074 18.7457 52.5736 18.7156L52.5068 18.3466ZM52.8862 18.0546V18.4296C53.0368 18.4296 53.1489 18.4323 53.2296 18.4368C53.3172 18.4417 53.3474 18.4477 53.3465 18.4475C53.3443 18.447 53.3336 18.4442 53.3182 18.4379C53.3051 18.4326 53.2718 18.4179 53.2349 18.3873C53.1976 18.3563 53.1342 18.2896 53.1125 18.1806C53.0895 18.0654 53.1262 17.971 53.1613 17.9156C53.193 17.8655 53.2289 17.8368 53.2437 17.8257C53.261 17.8127 53.2747 17.8053 53.2797 17.8027C53.2894 17.7977 53.2911 17.798 53.278 17.8025C53.221 17.8222 53.102 17.8508 52.9373 17.8841C52.7797 17.9161 52.6022 17.9482 52.4399 17.9776L52.5068 18.3466L52.5736 18.7156C52.8773 18.6606 53.3202 18.5817 53.5238 18.5111C53.5528 18.501 53.5892 18.4871 53.625 18.4685C53.6434 18.459 53.7333 18.4143 53.795 18.3167C53.834 18.2552 53.8721 18.1548 53.848 18.0338C53.8251 17.919 53.7579 17.8467 53.7141 17.8103C53.6384 17.7475 53.5549 17.7266 53.5291 17.7201C53.4027 17.6884 53.182 17.6796 52.8862 17.6796V18.0546ZM49.2377 16.5241L49.0319 16.8377C49.5058 17.1487 50.1084 17.5447 50.7621 17.8613C51.4135 18.1769 52.1468 18.4296 52.8862 18.4296V18.0546V17.6796C52.3092 17.6796 51.6946 17.4797 51.089 17.1864C50.4857 16.8941 49.9222 16.5248 49.4434 16.2106L49.2377 16.5241ZM48.321 15.9804L48.1862 16.3303C48.3522 16.3943 48.6263 16.5714 49.0319 16.8377L49.2377 16.5241L49.4434 16.2106C49.0755 15.9692 48.7166 15.7309 48.4559 15.6305L48.321 15.9804ZM48.5339 15.3668L48.811 15.1142C48.6204 14.9052 48.3575 14.921 48.2066 14.9629C48.045 15.0077 47.8885 15.1082 47.7791 15.2434C47.6684 15.3801 47.5704 15.6041 47.6588 15.8559C47.7429 16.0952 47.9563 16.2417 48.1862 16.3303L48.321 15.9804L48.4559 15.6305C48.3164 15.5767 48.345 15.5462 48.3664 15.6073C48.3775 15.6387 48.3766 15.6701 48.3708 15.6927C48.3658 15.7123 48.359 15.719 48.362 15.7153C48.3648 15.7119 48.3718 15.7048 48.3831 15.6974C48.3944 15.69 48.4036 15.6866 48.4072 15.6855C48.4121 15.6842 48.3995 15.689 48.3727 15.6846C48.3421 15.6796 48.2957 15.6622 48.2568 15.6195L48.5339 15.3668ZM49.5916 15.6463L49.428 15.9838C49.5141 16.0255 49.5092 16.0316 49.4813 16.005C49.4718 15.996 49.4411 15.9658 49.4156 15.915C49.3885 15.861 49.3516 15.7482 49.4035 15.6179C49.4524 15.4951 49.5474 15.4411 49.5891 15.4221C49.6331 15.4021 49.6691 15.397 49.6809 15.3955C49.7159 15.391 49.7199 15.3972 49.658 15.3869C49.6115 15.3792 49.549 15.366 49.4758 15.3477C49.329 15.3109 49.1579 15.2584 49.0147 15.2031C48.943 15.1754 48.8843 15.1494 48.8417 15.1269C48.7901 15.0997 48.7918 15.0932 48.811 15.1142L48.5339 15.3668L48.2568 15.6195C48.3292 15.6989 48.424 15.7546 48.4921 15.7905C48.5693 15.8311 48.6569 15.8689 48.7447 15.9028C48.9207 15.9707 49.1217 16.0321 49.2935 16.0752C49.3795 16.0967 49.4629 16.1148 49.5355 16.1269C49.5926 16.1363 49.689 16.1506 49.7762 16.1394C49.8011 16.1362 49.8477 16.1285 49.8995 16.1049C49.949 16.0824 50.0492 16.0238 50.1003 15.8955C50.1544 15.7596 50.1168 15.6403 50.0859 15.5786C50.0566 15.5201 50.0188 15.4813 49.9991 15.4624C49.93 15.3965 49.8304 15.3454 49.7551 15.3089L49.5916 15.6463ZM48.321 14.513L48.0194 14.7358C48.2369 15.0303 48.6946 15.6284 49.428 15.9838L49.5916 15.6463L49.7551 15.3089C49.1975 15.0387 48.8309 14.5722 48.6227 14.2903L48.321 14.513ZM48.5339 14.2527L48.7795 13.9693C48.6839 13.8865 48.5644 13.8127 48.4263 13.788C48.2792 13.7617 48.0898 13.793 47.9595 13.9519C47.841 14.0964 47.8367 14.2687 47.8592 14.3883C47.8827 14.5135 47.9423 14.6315 48.0194 14.7358L48.321 14.513L48.6227 14.2903C48.5933 14.2505 48.5936 14.2355 48.5962 14.2495C48.5978 14.2578 48.6108 14.3404 48.5394 14.4275C48.4562 14.529 48.3436 14.5351 48.2942 14.5263C48.2538 14.519 48.2529 14.5054 48.2883 14.5361L48.5339 14.2527ZM50.004 15.1335C50.1824 14.8037 50.1824 14.8037 50.1824 14.8037C50.1824 14.8037 50.1824 14.8036 50.1824 14.8036C50.1824 14.8036 50.1824 14.8036 50.1823 14.8036C50.1822 14.8035 50.182 14.8034 50.1817 14.8033C50.1812 14.803 50.1804 14.8025 50.1793 14.8019C50.1771 14.8007 50.1738 14.7989 50.1694 14.7966C50.1607 14.7918 50.1478 14.7848 50.1313 14.7758C50.0982 14.7577 50.0505 14.7316 49.9924 14.6995C49.8762 14.6353 49.7187 14.5474 49.5535 14.4528C49.3879 14.3579 49.2166 14.2573 49.0719 14.1674C48.9194 14.0727 48.8193 14.0038 48.7795 13.9693L48.5339 14.2527L48.2883 14.5361C48.3794 14.615 48.5285 14.7129 48.6762 14.8046C48.8317 14.9011 49.0115 15.0066 49.1807 15.1035C49.3502 15.2007 49.5112 15.2905 49.6297 15.356C49.689 15.3887 49.7378 15.4154 49.7718 15.434C49.7888 15.4433 49.8021 15.4506 49.8112 15.4555C49.8158 15.458 49.8193 15.4599 49.8217 15.4612C49.8229 15.4619 49.8238 15.4624 49.8244 15.4627C49.8248 15.4629 49.825 15.463 49.8252 15.4631C49.8253 15.4631 49.8253 15.4632 49.8254 15.4632C49.8254 15.4632 49.8254 15.4632 49.8254 15.4632C49.8255 15.4632 49.8255 15.4632 50.004 15.1335ZM48.8443 13.541L48.5127 13.7161C48.7837 14.2295 49.089 14.6484 49.3261 14.9389C49.4449 15.0845 49.5474 15.1987 49.6211 15.2775C49.658 15.3169 49.6877 15.3475 49.7087 15.3688C49.7192 15.3794 49.7276 15.3877 49.7336 15.3936C49.7366 15.3965 49.739 15.3989 49.7408 15.4006C49.7417 15.4015 49.7424 15.4022 49.743 15.4028C49.7433 15.4031 49.7436 15.4033 49.7438 15.4035C49.7439 15.4036 49.744 15.4037 49.7441 15.4038C49.7441 15.4038 49.7442 15.4039 49.7442 15.4039C49.7442 15.404 49.7443 15.404 50.004 15.1335C50.2636 14.8629 50.2637 14.8629 50.2637 14.863C50.2637 14.863 50.2638 14.863 50.2638 14.8631C50.2638 14.8631 50.2639 14.8631 50.2639 14.8632C50.264 14.8632 50.264 14.8632 50.264 14.8632C50.2639 14.8632 50.2637 14.863 50.2634 14.8627C50.2627 14.862 50.2614 14.8608 50.2596 14.8589C50.2558 14.8553 50.2498 14.8493 50.2416 14.841C50.2253 14.8245 50.2005 14.7991 50.1688 14.7651C50.1052 14.6972 50.014 14.5956 49.9071 14.4646C49.6927 14.2019 49.4181 13.8246 49.1759 13.3659L48.8443 13.541ZM50.2371 13.541L50.4776 13.2533C50.2388 13.0537 49.9873 12.8855 49.7495 12.7616C49.518 12.641 49.2742 12.549 49.0549 12.5276C48.9451 12.5168 48.813 12.5208 48.6856 12.5729C48.5455 12.6302 48.4278 12.7401 48.3697 12.8984C48.3169 13.0423 48.3267 13.1898 48.355 13.3148C48.3841 13.4426 48.4393 13.5771 48.5127 13.7161L48.8443 13.541L49.1759 13.3659C49.121 13.262 49.0961 13.1912 49.0864 13.1487C49.0762 13.1035 49.0888 13.1158 49.0738 13.1567C49.0535 13.212 49.0085 13.2511 48.9695 13.2671C48.9432 13.2779 48.9405 13.27 48.9819 13.274C49.065 13.2821 49.2107 13.3265 49.4029 13.4267C49.5889 13.5236 49.7956 13.6608 49.9966 13.8287L50.2371 13.541ZM52.3554 14.513L52.3934 14.14C52.0423 14.1042 51.2914 13.9336 50.4776 13.2533L50.2371 13.541L49.9966 13.8287C50.942 14.619 51.8404 14.8375 52.3173 14.8861L52.3554 14.513ZM51.1443 13.541L50.9623 13.8689C51.3533 14.086 51.7426 14.3298 51.9777 14.5078C52.0357 14.5517 52.0794 14.588 52.1094 14.6157C52.1455 14.6492 52.1421 14.6526 52.1291 14.6303C52.1233 14.6204 52.0944 14.5705 52.091 14.4931C52.0867 14.3931 52.1279 14.2837 52.2193 14.2098C52.2904 14.1524 52.3593 14.1434 52.3741 14.1416C52.3952 14.1391 52.4042 14.1411 52.3934 14.14L52.3554 14.513L52.3173 14.8861C52.3584 14.8903 52.4094 14.8928 52.4634 14.8863C52.5112 14.8806 52.604 14.8631 52.6905 14.7933C52.7974 14.707 52.8455 14.581 52.8403 14.4608C52.8361 14.3631 52.7984 14.2893 52.7768 14.2522C52.7319 14.1753 52.6677 14.1106 52.6192 14.0657C52.5646 14.015 52.4997 13.9623 52.4304 13.9098C52.1556 13.7018 51.7323 13.4385 51.3263 13.2132L51.1443 13.541ZM51.1443 12.1471L51.4129 11.8855C51.3102 11.78 51.183 11.6847 51.0299 11.6446C50.8601 11.6001 50.6893 11.6323 50.5514 11.7329C50.4272 11.8235 50.3551 11.95 50.3132 12.0596C50.2699 12.1728 50.2475 12.2966 50.2401 12.4183C50.2126 12.8716 50.3904 13.5514 50.9623 13.8689L51.1443 13.541L51.3263 13.2132C51.1012 13.0882 50.971 12.7549 50.9887 12.4638C50.9926 12.3993 51.0036 12.3538 51.0137 12.3276C51.0251 12.2978 51.0263 12.3148 50.9933 12.3389C50.9465 12.373 50.8846 12.3819 50.8396 12.37C50.8112 12.3626 50.8244 12.3562 50.8757 12.4088L51.1443 12.1471ZM54.4686 13.7164L54.6117 13.3698C53.8672 13.0624 53.1228 12.755 52.5246 12.4837C52.2253 12.348 51.9684 12.2239 51.7693 12.1155C51.5582 12.0006 51.4493 11.9228 51.4129 11.8855L51.1443 12.1471L50.8757 12.4088C50.9996 12.536 51.2007 12.6599 51.4108 12.7743C51.633 12.8952 51.9087 13.0279 52.2148 13.1667C52.8272 13.4445 53.5847 13.7572 54.3254 14.063L54.4686 13.7164ZM57.5268 15.1335L57.7708 14.8487C57.6492 14.7444 57.4672 14.6375 57.269 14.5338C57.0633 14.4261 56.8124 14.3077 56.5344 14.1832C55.9783 13.9341 55.2949 13.6519 54.6117 13.3698L54.4686 13.7164L54.3254 14.063C55.0119 14.3465 55.6839 14.624 56.2278 14.8676C56.4997 14.9894 56.7348 15.1007 56.9211 15.1982C57.1149 15.2997 57.2308 15.3736 57.2828 15.4182L57.5268 15.1335ZM57.1204 14.0488L56.8031 14.2487C57.0717 14.6752 57.308 15.0516 57.4074 15.2586C57.4328 15.3115 57.4371 15.3291 57.4356 15.3227C57.4348 15.3191 57.4326 15.3094 57.4312 15.2949C57.4299 15.2814 57.4285 15.2555 57.4335 15.2221C57.4444 15.1493 57.4955 15.0132 57.6498 14.9507C57.7674 14.903 57.8632 14.9359 57.8757 14.9401C57.9003 14.9482 57.9102 14.9558 57.9002 14.9496C57.8819 14.9384 57.8412 14.909 57.7708 14.8487L57.5268 15.1335L57.2828 15.4182C57.3627 15.4867 57.4384 15.546 57.5066 15.5881C57.5398 15.6085 57.5856 15.634 57.639 15.6517C57.6805 15.6655 57.7981 15.6998 57.9313 15.6458C58.1011 15.5771 58.1612 15.427 58.1752 15.3332C58.1873 15.2525 58.1734 15.1834 58.1653 15.1492C58.1474 15.0739 58.1136 14.9967 58.0834 14.9338C57.9604 14.6777 57.6929 14.2543 57.4377 13.849L57.1204 14.0488ZM56.8029 13.541L56.4836 13.7376C56.5863 13.9045 56.6962 14.0789 56.8031 14.2487L57.1204 14.0488L57.4377 13.849C57.3304 13.6786 57.2226 13.5075 57.1223 13.3445L56.8029 13.541ZM59.4432 14.3485L59.5998 14.0077C58.8117 13.6457 58.0468 13.294 57.523 13.106C57.3905 13.0584 57.2661 13.0186 57.1559 12.9914C57.0535 12.9662 56.9319 12.9437 56.8177 12.9521C56.7596 12.9563 56.6732 12.9704 56.5879 13.0218C56.4903 13.0805 56.4139 13.1769 56.3858 13.2997C56.361 13.4078 56.3811 13.5029 56.4011 13.5646C56.4219 13.6289 56.4527 13.6875 56.4836 13.7376L56.8029 13.541L57.1223 13.3445C57.1097 13.3239 57.1106 13.3213 57.1145 13.3333C57.1176 13.3426 57.1335 13.3944 57.1168 13.4673C57.0967 13.5551 57.0406 13.6247 56.9745 13.6644C56.9207 13.6968 56.8771 13.6997 56.8726 13.7001C56.8653 13.7006 56.8931 13.6992 56.9765 13.7197C57.052 13.7383 57.1497 13.7688 57.2696 13.8119C57.7554 13.9862 58.4845 14.3208 59.2867 14.6892L59.4432 14.3485ZM62.5983 15.6463L62.6932 15.2835C61.9684 15.0941 60.7608 14.541 59.5998 14.0077L59.4432 14.3485L59.2867 14.6892C60.4161 15.208 61.6985 15.7987 62.5035 16.0091L62.5983 15.6463ZM64.3831 16.2249L64.5071 15.871C63.883 15.6523 63.2379 15.4259 62.6932 15.2835L62.5983 15.6463L62.5035 16.0091C63.0124 16.1422 63.6258 16.3569 64.259 16.5788L64.3831 16.2249ZM67.4824 16.6062H67.1074C67.1074 16.6224 67.1049 16.5969 67.1313 16.5669C67.1533 16.5419 67.1666 16.547 67.1305 16.5554C67.0445 16.5757 66.8702 16.5722 66.5876 16.516C66.0386 16.4069 65.2928 16.1464 64.5071 15.871L64.3831 16.2249L64.259 16.5788C65.0246 16.8472 65.8284 17.1298 66.4413 17.2516C66.7397 17.3109 67.0494 17.3449 67.302 17.2856C67.4353 17.2543 67.5817 17.1903 67.6944 17.0622C67.8116 16.929 67.8574 16.7663 67.8574 16.6062H67.4824ZM70.4226 13.541L70.3005 13.1865C69.4725 13.4718 68.6879 14.0286 68.1093 14.6412C67.8189 14.9488 67.5727 15.2784 67.3973 15.606C67.224 15.9296 67.1074 16.2745 67.1074 16.6062H67.4824H67.8574C67.8574 16.4425 67.9181 16.2221 68.0585 15.96C68.1966 15.702 68.4002 15.4255 68.6546 15.1562C69.1658 14.6149 69.8513 14.1345 70.5448 13.8956L70.4226 13.541ZM72.4152 13.8877L72.6221 13.575C72.3455 13.392 72.0379 13.1845 71.6623 13.0851C71.2697 12.9812 70.8375 13.0014 70.3005 13.1865L70.4226 13.541L70.5448 13.8956C70.9733 13.7479 71.2513 13.7522 71.4705 13.8101C71.7067 13.8726 71.9125 14.0048 72.2083 14.2005L72.4152 13.8877ZM73.6407 14.513L73.7518 14.1549C73.2801 14.0086 72.9506 13.7922 72.6221 13.575L72.4152 13.8877L72.2083 14.2005C72.5389 14.4191 72.9463 14.6903 73.5296 14.8712L73.6407 14.513ZM72.2533 23.1299C71.8785 23.1416 71.8785 23.1416 71.8785 23.1416C71.8785 23.1416 71.8785 23.1416 71.8785 23.1416C71.8785 23.1417 71.8785 23.1418 71.8785 23.142C71.8785 23.1423 71.8785 23.1428 71.8785 23.1434C71.8786 23.1448 71.8786 23.1468 71.8787 23.1495C71.8789 23.155 71.8791 23.1632 71.8794 23.174C71.88 23.1955 71.8808 23.2273 71.8817 23.2679C71.8836 23.3491 71.8859 23.4653 71.8876 23.6048C71.891 23.8844 71.892 24.2556 71.8825 24.6254C71.8728 24.9984 71.8527 25.3575 71.8163 25.618C71.7976 25.7517 71.7774 25.8374 71.7612 25.8814C71.7525 25.9051 71.7535 25.8927 71.7739 25.868C71.7958 25.8414 71.8721 25.7653 72.0039 25.7653V26.1403V26.5153C72.1785 26.5153 72.2944 26.4156 72.3526 26.345C72.4094 26.2762 72.4435 26.1991 72.4651 26.1404C72.5095 26.0198 72.5383 25.8704 72.5591 25.7219C72.6016 25.4179 72.6224 25.0243 72.6322 24.6448C72.6421 24.262 72.641 23.8806 72.6376 23.5957C72.6358 23.453 72.6335 23.334 72.6315 23.2506C72.6306 23.2089 72.6297 23.176 72.6291 23.1534C72.6288 23.1421 72.6286 23.1334 72.6284 23.1275C72.6283 23.1245 72.6282 23.1223 72.6282 23.1207C72.6282 23.1199 72.6281 23.1193 72.6281 23.1189C72.6281 23.1187 72.6281 23.1185 72.6281 23.1184C72.6281 23.1183 72.6281 23.1183 72.6281 23.1183C72.6281 23.1182 72.6281 23.1182 72.2533 23.1299ZM73.2669 25.7748H73.6419C73.6419 25.5119 73.5619 25.1992 73.4643 24.906C73.3637 24.6038 73.2314 24.2854 73.1019 23.9985C72.9719 23.7106 72.8424 23.4491 72.7454 23.2599C72.6969 23.1651 72.6564 23.0881 72.6278 23.0345C72.6135 23.0077 72.6023 22.9867 72.5945 22.9723C72.5906 22.9651 72.5875 22.9595 72.5854 22.9557C72.5844 22.9538 72.5836 22.9523 72.583 22.9512C72.5827 22.9507 72.5825 22.9503 72.5823 22.95C72.5822 22.9498 72.5822 22.9497 72.5821 22.9496C72.5821 22.9496 72.582 22.9495 72.582 22.9495C72.582 22.9494 72.582 22.9494 72.2533 23.1299C71.9246 23.3104 71.9246 23.3103 71.9246 23.3103C71.9246 23.3103 71.9245 23.3103 71.9246 23.3103C71.9246 23.3104 71.9246 23.3104 71.9246 23.3105C71.9247 23.3106 71.9248 23.3109 71.925 23.3112C71.9254 23.312 71.9261 23.3131 71.927 23.3147C71.9287 23.3179 71.9314 23.3228 71.9349 23.3293C71.9419 23.3423 71.9524 23.3618 71.9659 23.387C71.9927 23.4375 72.0314 23.511 72.0779 23.6017C72.171 23.7836 72.2948 24.0335 72.4183 24.307C72.5422 24.5815 72.6633 24.8743 72.7527 25.143C72.8452 25.4206 72.8919 25.6382 72.8919 25.7748H73.2669ZM73.2458 26.3515L73.6193 26.3183C73.6181 26.3049 73.619 26.292 73.6268 26.1882C73.6337 26.0962 73.6419 25.9684 73.6419 25.7748H73.2669H72.8919C72.8919 25.9446 72.8848 26.0527 72.8789 26.1319C72.8738 26.1994 72.8641 26.2932 72.8722 26.3846L73.2458 26.3515ZM73.5709 27.1453L73.913 26.9917C73.7858 26.7082 73.7128 26.5535 73.6648 26.4419C73.6419 26.3886 73.6305 26.3583 73.6244 26.3389C73.6194 26.3229 73.6193 26.3186 73.6193 26.3183L73.2458 26.3515L72.8722 26.3846C72.8834 26.5108 72.9245 26.6189 72.9759 26.7383C73.0262 26.8552 73.1102 27.0346 73.2288 27.2988L73.5709 27.1453ZM73.2036 27.4774L73.0753 27.8297C73.1821 27.8686 73.2951 27.9101 73.3899 27.9355C73.4381 27.9483 73.4975 27.9616 73.56 27.9656C73.618 27.9694 73.7181 27.9682 73.8208 27.9159C73.9422 27.8539 74.0167 27.7469 74.0464 27.6334C74.0716 27.5372 74.0622 27.4481 74.0516 27.389C74.0303 27.2701 73.9767 27.1334 73.913 26.9917L73.5709 27.1453L73.2288 27.2988C73.2577 27.3632 73.2784 27.4139 73.2927 27.4534C73.3074 27.4943 73.3123 27.5151 73.3134 27.5214C73.3154 27.5324 73.3066 27.4982 73.3209 27.4435C73.3289 27.4127 73.3448 27.3739 73.3745 27.3355C73.4048 27.2963 73.442 27.2672 73.48 27.2478C73.5494 27.2124 73.6052 27.217 73.6085 27.2172C73.6163 27.2177 73.6105 27.2181 73.5835 27.2109C73.5281 27.1961 73.451 27.1684 73.3319 27.125L73.2036 27.4774ZM71.625 27.1453V27.5203C72.2191 27.5203 72.7127 27.6977 73.0753 27.8297L73.2036 27.4774L73.3319 27.125C72.9676 26.9924 72.3638 26.7703 71.625 26.7703V27.1453ZM72.0039 26.1403V25.7653C71.8895 25.7653 71.775 25.8021 71.6936 25.8333C71.6013 25.8686 71.5027 25.9162 71.4065 25.9701C71.2182 26.0754 71.0071 26.2225 70.8532 26.3845C70.7779 26.4638 70.6954 26.5681 70.6475 26.6923C70.5963 26.8251 70.5749 27.0147 70.691 27.1929C70.7946 27.3518 70.9606 27.426 71.0991 27.4638C71.2448 27.5036 71.4215 27.5203 71.625 27.5203V27.1453V26.7703C71.4548 26.7703 71.3523 26.7555 71.2969 26.7403C71.2343 26.7232 71.2773 26.7188 71.3195 26.7835C71.3742 26.8676 71.3531 26.9472 71.3473 26.9622C71.3448 26.9686 71.3529 26.9474 71.397 26.901C71.4818 26.8118 71.6242 26.7077 71.7727 26.6246C71.8449 26.5842 71.9104 26.5533 71.9617 26.5337C72.0239 26.5099 72.0323 26.5153 72.0039 26.5153V26.1403Z" fill="#272727"/>
</g>
</g>
<defs>
<clipPath id="clip0_1756_19058">
<rect width="96" height="72" fill="white"/>
</clipPath>
</defs>
</svg>
